<?xml version="1.0" encoding="UTF-8" standalone="no"?>
<!DOCTYPE svg PUBLIC "-//W3C//DTD SVG 1.1//EN" "http://www.w3.org/Graphics/SVG/1.1/DTD/svg11.dtd">
<svg width="100%" height="100%" viewBox="0 0 557 113" version="1.1" xmlns="http://www.w3.org/2000/svg" xmlns:xlink="http://www.w3.org/1999/xlink" xml:space="preserve" xmlns:serif="http://www.serif.com/" style="fill-rule:evenodd;clip-rule:evenodd;stroke-linejoin:round;stroke-miterlimit:2;">
    <path d="M157.45,28.61C161.18,28.61 162.82,26.37 164.11,26.37C164.84,26.37 165.33,26.93 165.33,27.8C165.33,29.37 161.81,31.26 157.45,31.26C150.26,31.26 146.56,25.08 146.56,18.63C146.56,12.18 150.26,6 157.62,6C162.02,6 164.81,8.38 164.81,9.63C164.814,9.674 164.817,9.718 164.817,9.762C164.817,10.469 164.256,11.061 163.55,11.1C162.16,11.1 161.46,8.65 157.62,8.65C152.11,8.65 149.84,13.89 149.84,18.65C149.84,23.41 152.18,28.65 157.45,28.65" style="fill:rgb(170,24,44);fill-rule:nonzero;"/>
    <path d="M176.63,12.28C181.86,12.28 184.8,16.85 184.8,21.77C184.8,26.69 181.86,31.26 176.63,31.26C171.4,31.26 168.47,26.69 168.47,21.77C168.47,16.85 171.4,12.28 176.63,12.28M176.63,28.61C180.4,28.61 181.73,24.91 181.73,21.77C181.73,18.63 180.4,14.93 176.63,14.93C172.86,14.93 171.54,18.63 171.54,21.77C171.54,24.91 172.87,28.61 176.63,28.61" style="fill:rgb(170,24,44);fill-rule:nonzero;"/>
    <path d="M192.2,29.62C192.203,29.661 192.205,29.703 192.205,29.744C192.205,30.589 191.51,31.284 190.665,31.284C189.82,31.284 189.125,30.589 189.125,29.744C189.125,29.703 189.127,29.661 189.13,29.62L189.13,5.76C189.127,5.719 189.125,5.677 189.125,5.636C189.125,4.791 189.82,4.096 190.665,4.096C191.51,4.096 192.205,4.791 192.205,5.636C192.205,5.677 192.203,5.719 192.2,5.76L192.2,29.62Z" style="fill:rgb(170,24,44);fill-rule:nonzero;"/>
    <path d="M199.27,22.96C199.27,26.13 201.27,28.61 204.75,28.61C208.83,28.61 209.88,26.1 211.03,26.1C211.658,26.147 212.15,26.677 212.15,27.307C212.15,27.358 212.146,27.409 212.14,27.46C212.14,28.96 208.34,31.26 204.71,31.26C198.78,31.26 196.2,26.69 196.2,21.77C196.2,16.85 199.34,12.28 204.54,12.28C209.74,12.28 212.54,16.85 212.54,21.28C212.54,22.36 212.15,22.92 210.83,22.92L199.27,22.96ZM209.46,20.65C209.46,18 207.92,14.93 204.54,14.93C200.74,14.79 199.38,17.83 199.27,20.65L209.46,20.65Z" style="fill:rgb(170,24,44);fill-rule:nonzero;"/>
    <path d="M231.75,29.72C231.75,35.23 228.4,38.58 223.38,38.58C220.2,38.58 216.26,36.77 216.26,35.2C216.255,35.153 216.252,35.107 216.252,35.06C216.252,34.352 216.835,33.77 217.542,33.77L217.55,33.77C218.95,33.77 220.31,35.93 223.62,35.93C227.53,35.93 228.68,32.86 228.68,30.21L228.68,28.61L228.61,28.61C227.639,30.281 225.832,31.297 223.9,31.26C218.67,31.26 215.74,26.69 215.74,21.77C215.74,16.85 218.67,12.28 223.9,12.28C225.736,12.332 227.459,13.188 228.61,14.62L228.68,14.62L228.68,13.78C228.679,13.763 228.679,13.746 228.679,13.729C228.679,12.928 229.338,12.269 230.139,12.269C230.2,12.269 230.26,12.273 230.32,12.28L230.322,12.28C231.106,12.28 231.752,12.926 231.752,13.71C231.752,13.733 231.751,13.757 231.75,13.78L231.75,29.72ZM223.9,28.61C227.67,28.61 228.99,24.91 228.99,21.77C228.99,18.63 227.67,14.93 223.9,14.93C220.13,14.93 218.81,18.63 218.81,21.77C218.81,24.91 220.13,28.61 223.9,28.61" style="fill:rgb(170,24,44);fill-rule:nonzero;"/>
    <path d="M238.55,6L238.56,6C239.597,6 240.45,6.853 240.45,7.89C240.45,8.927 239.597,9.78 238.56,9.78C237.523,9.78 236.67,8.927 236.67,7.89L236.67,7.87C236.67,6.844 237.514,6 238.54,6L238.55,6M240.08,29.62C240.08,30.459 239.389,31.15 238.55,31.15C237.711,31.15 237.02,30.459 237.02,29.62L237.02,13.92C237.02,13.081 237.711,12.39 238.55,12.39C239.389,12.39 240.08,13.081 240.08,13.92L240.08,29.62Z" style="fill:rgb(170,24,44);fill-rule:nonzero;"/>
    <path d="M252.57,12.28C257.8,12.28 260.74,16.85 260.74,21.77C260.74,26.69 257.8,31.26 252.57,31.26C247.34,31.26 244.41,26.69 244.41,21.77C244.41,16.85 247.34,12.28 252.57,12.28M252.57,28.61C256.34,28.61 257.67,24.91 257.67,21.77C257.67,18.63 256.34,14.93 252.57,14.93C248.8,14.93 247.48,18.63 247.48,21.77C247.48,24.91 248.81,28.61 252.57,28.61" style="fill:rgb(170,24,44);fill-rule:nonzero;"/>
    <path d="M148.8,66.96C148.635,67.647 148.006,68.129 147.3,68.11C147.253,68.115 147.206,68.117 147.16,68.117C146.442,68.117 145.848,67.537 145.83,66.82C145.909,66.295 146.05,65.782 146.25,65.29L153.96,44.74C154.34,43.66 154.96,42.86 156.16,42.86C157.36,42.86 157.97,43.66 158.36,44.74L166.06,65.29C166.265,65.78 166.406,66.294 166.48,66.82C166.462,67.537 165.867,68.116 165.15,68.116C165.107,68.116 165.063,68.114 165.02,68.11C164.314,68.129 163.685,67.647 163.52,66.96L161.91,62.51L150.4,62.51L148.8,66.96ZM156.2,46.42L156.13,46.42L151.35,59.85L160.98,59.85L156.2,46.42Z" style="fill:rgb(170,24,44);fill-rule:nonzero;"/>
    <path d="M182.07,65.57L182,65.57C181.13,67.24 179.49,68.11 177.05,68.11C172.05,68.11 169.13,63.54 169.13,58.63C169.13,53.72 172.03,49.14 177.05,49.14C179.007,49.128 180.854,50.064 182,51.65L182.07,51.65L182.07,42.65C182.067,42.609 182.065,42.567 182.065,42.526C182.065,41.681 182.76,40.986 183.605,40.986C184.45,40.986 185.145,41.681 185.145,42.526C185.145,42.567 185.143,42.609 185.14,42.65L185.14,66.51C185.143,66.551 185.145,66.593 185.145,66.634C185.145,67.479 184.45,68.174 183.605,68.174C182.76,68.174 182.065,67.479 182.065,66.634C182.065,66.593 182.067,66.551 182.07,66.51L182.07,65.57ZM177.3,51.79C173.53,51.79 172.2,55.49 172.2,58.63C172.2,61.77 173.53,65.46 177.3,65.46C181.07,65.46 182.39,61.77 182.39,58.63C182.39,55.49 181.06,51.79 177.3,51.79" style="fill:rgb(170,24,44);fill-rule:nonzero;"/>
    <path d="M201.4,56.08C201.4,53.43 199.94,51.79 197.4,51.79C194.86,51.79 193.46,53.43 193.46,56.08L193.46,66.51C193.463,66.551 193.465,66.593 193.465,66.634C193.465,67.479 192.77,68.174 191.925,68.174C191.08,68.174 190.385,67.479 190.385,66.634C190.385,66.593 190.387,66.551 190.39,66.51L190.39,50.81C190.387,50.769 190.385,50.727 190.385,50.686C190.385,49.841 191.08,49.146 191.925,49.146C192.77,49.146 193.465,49.841 193.465,50.686C193.465,50.727 193.463,50.769 193.46,50.81L193.46,51.37L193.53,51.44C194.582,49.916 196.362,49.053 198.21,49.17C200.36,49.171 202.334,50.389 203.3,52.31C204.481,50.312 206.66,49.108 208.98,49.17C211.85,49.17 215.44,50.98 215.44,56.17L215.44,66.51C215.443,66.551 215.445,66.593 215.445,66.634C215.445,67.479 214.75,68.174 213.905,68.174C213.06,68.174 212.365,67.479 212.365,66.634C212.365,66.593 212.367,66.551 212.37,66.51L212.37,56.11C212.37,53.46 210.9,51.82 208.37,51.82C205.84,51.82 204.43,53.46 204.43,56.11L204.43,66.51C204.433,66.551 204.435,66.593 204.435,66.634C204.435,67.479 203.74,68.174 202.895,68.174C202.05,68.174 201.355,67.479 201.355,66.634C201.355,66.593 201.357,66.551 201.36,66.51L201.4,56.08Z" style="fill:rgb(170,24,44);fill-rule:nonzero;"/>
    <path d="M222.12,42.86L222.13,42.86C223.167,42.86 224.02,43.713 224.02,44.75C224.02,45.787 223.167,46.64 222.13,46.64C221.093,46.64 220.24,45.787 220.24,44.75L220.24,44.73C220.24,43.704 221.084,42.86 222.11,42.86L222.12,42.86M223.66,66.51C223.663,66.551 223.665,66.593 223.665,66.634C223.665,67.479 222.97,68.174 222.125,68.174C221.28,68.174 220.585,67.479 220.585,66.634C220.585,66.593 220.587,66.551 220.59,66.51L220.59,50.78C220.587,50.739 220.585,50.697 220.585,50.656C220.585,49.811 221.28,49.116 222.125,49.116C222.97,49.116 223.665,49.811 223.665,50.656C223.665,50.697 223.663,50.739 223.66,50.78L223.66,66.51Z" style="fill:rgb(170,24,44);fill-rule:nonzero;"/>
    <path d="M228.78,50.78C228.777,50.739 228.775,50.697 228.775,50.656C228.775,49.811 229.47,49.116 230.315,49.116C231.16,49.116 231.855,49.811 231.855,50.656C231.855,50.697 231.853,50.739 231.85,50.78L231.85,51.51L231.92,51.58C233.151,50.007 235.053,49.102 237.05,49.14C239.91,49.14 243.5,50.95 243.5,56.14L243.5,66.51C243.503,66.551 243.505,66.593 243.505,66.634C243.505,67.479 242.81,68.174 241.965,68.174C241.12,68.174 240.425,67.479 240.425,66.634C240.425,66.593 240.427,66.551 240.43,66.51L240.43,56.36C240.437,56.262 240.44,56.165 240.44,56.067C240.44,53.708 238.499,51.767 236.14,51.767C233.781,51.767 231.84,53.708 231.84,56.067C231.84,56.165 231.843,56.262 231.85,56.36L231.85,66.51C231.853,66.551 231.855,66.593 231.855,66.634C231.855,67.479 231.16,68.174 230.315,68.174C229.47,68.174 228.775,67.479 228.775,66.634C228.775,66.593 228.777,66.551 228.78,66.51L228.78,50.78Z" style="fill:rgb(170,24,44);fill-rule:nonzero;"/>
    <path d="M250.2,42.86C251.237,42.86 252.09,43.713 252.09,44.75C252.09,45.787 251.237,46.64 250.2,46.64C249.163,46.64 248.31,45.787 248.31,44.75L248.31,44.74C248.31,43.709 249.159,42.86 250.19,42.86L250.2,42.86M251.7,66.51C251.703,66.551 251.705,66.593 251.705,66.634C251.705,67.479 251.01,68.174 250.165,68.174C249.32,68.174 248.625,67.479 248.625,66.634C248.625,66.593 248.627,66.551 248.63,66.51L248.63,50.78C248.627,50.739 248.625,50.697 248.625,50.656C248.625,49.811 249.32,49.116 250.165,49.116C251.01,49.116 251.705,49.811 251.705,50.656C251.705,50.697 251.703,50.739 251.7,50.78L251.7,66.51Z" style="fill:rgb(170,24,44);fill-rule:nonzero;"/>
    <path d="M262.72,49.14C265.27,49.14 268.9,50.5 268.9,52.42L268.9,52.429C268.9,53.115 268.336,53.679 267.65,53.679C267.6,53.679 267.55,53.676 267.5,53.67C266.18,53.67 265.65,51.79 262.72,51.79C260.98,51.79 259.48,52.56 259.48,54.13C259.48,57.37 269.39,57.02 269.39,62.39C269.39,66.26 266.07,68.11 262.62,68.11C258.71,68.11 255.62,66.11 255.62,64.59C255.618,64.563 255.618,64.536 255.618,64.509C255.618,63.808 256.18,63.225 256.88,63.2C258.24,63.2 259.35,65.46 262.7,65.46C264.94,65.46 266.3,64.21 266.3,62.95C266.3,59.32 256.39,59.53 256.39,54.37C256.39,50.95 259.6,49.14 262.7,49.14" style="fill:rgb(170,24,44);fill-rule:nonzero;"/>
    <path d="M274.37,45.34C274.367,45.299 274.365,45.257 274.365,45.216C274.365,44.371 275.06,43.676 275.905,43.676C276.75,43.676 277.445,44.371 277.445,45.216C277.445,45.257 277.443,45.299 277.44,45.34L277.44,49.34L278.7,49.34C279.7,49.34 280.23,49.83 280.23,50.66C280.23,51.49 279.71,51.99 278.7,51.99L277.44,51.99L277.44,66.51C277.443,66.551 277.445,66.593 277.445,66.634C277.445,67.479 276.75,68.174 275.905,68.174C275.06,68.174 274.365,67.479 274.365,66.634C274.365,66.593 274.367,66.551 274.37,66.51L274.37,52L273.12,52C272.12,52 271.58,51.51 271.58,50.67C271.58,49.83 272.11,49.35 273.12,49.35L274.37,49.35L274.37,45.34Z" style="fill:rgb(170,24,44);fill-rule:nonzero;"/>
    <path d="M283.55,50.78C283.547,50.739 283.545,50.697 283.545,50.656C283.545,49.811 284.24,49.116 285.085,49.116C285.93,49.116 286.625,49.811 286.625,50.656C286.625,50.697 286.623,50.739 286.62,50.78L286.62,52.35L286.69,52.35C287.38,50.92 289.09,49.14 290.87,49.14C290.92,49.135 290.97,49.133 291.02,49.133C291.876,49.133 292.58,49.837 292.58,50.693L292.58,50.71C292.58,51.58 291.95,52.14 290.66,52.38C288.85,52.7 286.66,54.06 286.66,57.65L286.66,66.51C286.663,66.551 286.665,66.593 286.665,66.634C286.665,67.479 285.97,68.174 285.125,68.174C284.28,68.174 283.585,67.479 283.585,66.634C283.585,66.593 283.587,66.551 283.59,66.51L283.55,50.78Z" style="fill:rgb(170,24,44);fill-rule:nonzero;"/>
    <path d="M310.96,66.61C310.96,67.394 310.314,68.04 309.53,68.04C308.746,68.04 308.1,67.394 308.1,66.61L308.1,65.32L308.04,65.32C306.943,67.053 305.031,68.107 302.98,68.11C297.75,68.11 294.81,63.54 294.81,58.63C294.81,53.72 297.75,49.14 302.98,49.14C304.952,49.156 306.814,50.065 308.04,51.61L308.1,51.61L308.1,50.61C308.1,49.826 308.746,49.18 309.53,49.18C310.314,49.18 310.96,49.826 310.96,50.61L310.96,66.61ZM302.96,65.46C306.72,65.46 308.05,61.77 308.05,58.63C308.05,55.49 306.72,51.79 302.96,51.79C299.2,51.79 297.86,55.49 297.86,58.63C297.86,61.77 299.2,65.51 302.98,65.51" style="fill:rgb(170,24,44);fill-rule:nonzero;"/>
    <path d="M328.2,65.57C327.33,67.24 325.69,68.11 323.2,68.11C318.2,68.11 315.28,63.54 315.28,58.63C315.28,53.72 318.17,49.14 323.2,49.14C325.175,49.111 327.043,50.049 328.2,51.65L328.27,51.65L328.27,42.65C328.267,42.609 328.265,42.567 328.265,42.526C328.265,41.681 328.96,40.986 329.805,40.986C330.65,40.986 331.345,41.681 331.345,42.526C331.345,42.567 331.343,42.609 331.34,42.65L331.34,66.51C331.343,66.551 331.345,66.593 331.345,66.634C331.345,67.479 330.65,68.174 329.805,68.174C328.96,68.174 328.265,67.479 328.265,66.634C328.265,66.593 328.267,66.551 328.27,66.51L328.2,65.57ZM323.42,51.79C319.65,51.79 318.33,55.49 318.33,58.63C318.33,61.77 319.65,65.46 323.42,65.46C327.19,65.46 328.51,61.77 328.51,58.63C328.51,55.49 327.19,51.79 323.42,51.79" style="fill:rgb(170,24,44);fill-rule:nonzero;"/>
    <path d="M343.93,49.14C349.16,49.14 352.09,53.71 352.09,58.63C352.09,63.55 349.16,68.11 343.93,68.11C338.7,68.11 335.77,63.54 335.77,58.63C335.77,53.72 338.7,49.14 343.93,49.14M343.93,65.46C347.7,65.46 349.02,61.77 349.02,58.63C349.02,55.49 347.7,51.79 343.93,51.79C340.16,51.79 338.83,55.49 338.83,58.63C338.83,61.77 340.16,65.46 343.93,65.46" style="fill:rgb(170,24,44);fill-rule:nonzero;"/>
    <path d="M356.42,50.78C356.417,50.739 356.415,50.697 356.415,50.656C356.415,49.811 357.11,49.116 357.955,49.116C358.8,49.116 359.495,49.811 359.495,50.656C359.495,50.697 359.493,50.739 359.49,50.78L359.49,52.35L359.56,52.35C360.25,50.92 361.96,49.14 363.74,49.14C363.79,49.135 363.84,49.133 363.89,49.133C364.746,49.133 365.45,49.837 365.45,50.693L365.45,50.71C365.45,51.58 364.82,52.14 363.53,52.38C361.72,52.7 359.53,54.06 359.53,57.65L359.53,66.51C359.533,66.551 359.535,66.593 359.535,66.634C359.535,67.479 358.84,68.174 357.995,68.174C357.15,68.174 356.455,67.479 356.455,66.634C356.455,66.593 356.457,66.551 356.46,66.51L356.42,50.78Z" style="fill:rgb(170,24,44);fill-rule:nonzero;"/>
    <path d="M370.44,59.81C370.44,62.99 372.44,65.46 375.91,65.46C380,65.46 381.04,62.95 382.19,62.95C382.823,62.998 383.318,63.532 383.318,64.167C383.318,64.214 383.316,64.262 383.31,64.31C383.31,65.81 379.51,68.11 375.88,68.11C369.95,68.11 367.37,63.54 367.37,58.63C367.37,53.72 370.51,49.14 375.7,49.14C380.89,49.14 383.7,53.71 383.7,58.14C383.7,59.22 383.32,59.78 381.99,59.78L370.44,59.81ZM380.62,57.51C380.62,54.86 379.09,51.79 375.7,51.79C371.9,51.65 370.54,54.68 370.44,57.51L380.62,57.51Z" style="fill:rgb(170,24,44);fill-rule:nonzero;"/>
    <path d="M393.6,49.14C396.15,49.14 399.77,50.5 399.77,52.42L399.77,52.439C399.77,53.119 399.21,53.679 398.53,53.679C398.48,53.679 398.43,53.676 398.38,53.67C397.05,53.67 396.53,51.79 393.6,51.79C391.86,51.79 390.36,52.56 390.36,54.13C390.36,57.37 400.26,57.02 400.26,62.39C400.26,66.26 396.95,68.11 393.5,68.11C389.59,68.11 386.5,66.11 386.5,64.59C386.498,64.56 386.497,64.529 386.497,64.499C386.497,63.804 387.055,63.225 387.75,63.2C389.11,63.2 390.23,65.46 393.58,65.46C395.81,65.46 397.17,64.21 397.17,62.95C397.17,59.32 387.27,59.53 387.27,54.37C387.27,50.95 390.48,49.14 393.58,49.14" style="fill:rgb(170,24,44);fill-rule:nonzero;"/>
    <path d="M426.2,65.57L426.13,65.57C425.26,67.24 423.62,68.11 421.13,68.11C416.13,68.11 413.21,63.54 413.21,58.63C413.21,53.72 416.11,49.14 421.13,49.14C423.105,49.111 424.973,50.049 426.13,51.65L426.2,51.65L426.2,42.65C426.197,42.609 426.195,42.567 426.195,42.526C426.195,41.681 426.89,40.986 427.735,40.986C428.58,40.986 429.275,41.681 429.275,42.526C429.275,42.567 429.273,42.609 429.27,42.65L429.27,66.51C429.273,66.551 429.275,66.593 429.275,66.634C429.275,67.479 428.58,68.174 427.735,68.174C426.89,68.174 426.195,67.479 426.195,66.634C426.195,66.593 426.197,66.551 426.2,66.51L426.2,65.57ZM421.43,51.79C417.66,51.79 416.33,55.49 416.33,58.63C416.33,61.77 417.66,65.46 421.43,65.46C425.2,65.46 426.52,61.77 426.52,58.63C426.52,55.49 425.19,51.79 421.43,51.79" style="fill:rgb(170,24,44);fill-rule:nonzero;"/>
    <path d="M436.5,59.81C436.5,62.99 438.5,65.46 441.98,65.46C446.06,65.46 447.11,62.95 448.26,62.95C448.893,62.998 449.388,63.532 449.388,64.167C449.388,64.214 449.386,64.262 449.38,64.31C449.38,65.81 445.57,68.11 441.95,68.11C436.02,68.11 433.44,63.54 433.44,58.63C433.44,53.72 436.57,49.14 441.77,49.14C446.97,49.14 449.77,53.71 449.77,58.14C449.77,59.22 449.39,59.78 448.06,59.78L436.5,59.81ZM446.69,57.51C446.69,54.86 445.16,51.79 441.77,51.79C437.97,51.65 436.61,54.68 436.5,57.51L446.69,57.51Z" style="fill:rgb(170,24,44);fill-rule:nonzero;"/>
    <path d="M466.64,66.51C466.643,66.551 466.645,66.593 466.645,66.634C466.645,67.479 465.95,68.174 465.105,68.174C464.26,68.174 463.565,67.479 463.565,66.634C463.565,66.593 463.567,66.551 463.57,66.51L463.57,44.74C463.564,44.685 463.561,44.629 463.561,44.574C463.561,43.745 464.242,43.064 465.071,43.064C465.117,43.064 465.164,43.066 465.21,43.07L473.93,43.07C474.714,43.07 475.36,43.716 475.36,44.5C475.36,45.284 474.714,45.93 473.93,45.93L466.64,45.93L466.64,54.06L473.1,54.06C473.884,54.06 474.53,54.706 474.53,55.49C474.53,56.274 473.884,56.92 473.1,56.92L466.64,56.92L466.64,66.51Z" style="fill:rgb(170,24,44);fill-rule:nonzero;"/>
    <path d="M480.39,42.86C481.427,42.86 482.28,43.713 482.28,44.75C482.28,45.787 481.427,46.64 480.39,46.64C479.353,46.64 478.5,45.787 478.5,44.75L478.5,44.74C478.5,43.709 479.349,42.86 480.38,42.86L480.39,42.86M481.92,66.47C481.923,66.511 481.925,66.553 481.925,66.594C481.925,67.439 481.23,68.134 480.385,68.134C479.54,68.134 478.845,67.439 478.845,66.594C478.845,66.553 478.847,66.511 478.85,66.47L478.85,50.78C478.847,50.739 478.845,50.697 478.845,50.656C478.845,49.811 479.54,49.116 480.385,49.116C481.23,49.116 481.925,49.811 481.925,50.656C481.925,50.697 481.923,50.739 481.92,50.78L481.92,66.47Z" style="fill:rgb(170,24,44);fill-rule:nonzero;"/>
    <path d="M487.05,50.78C487.047,50.739 487.045,50.697 487.045,50.656C487.045,49.811 487.74,49.116 488.585,49.116C489.43,49.116 490.125,49.811 490.125,50.656C490.125,50.697 490.123,50.739 490.12,50.78L490.12,51.51L490.19,51.58C491.421,50.007 493.323,49.102 495.32,49.14C498.18,49.14 501.77,50.95 501.77,56.14L501.77,66.51C501.773,66.551 501.775,66.593 501.775,66.634C501.775,67.479 501.08,68.174 500.235,68.174C499.39,68.174 498.695,67.479 498.695,66.634C498.695,66.593 498.697,66.551 498.7,66.51L498.7,56.36C498.707,56.262 498.71,56.165 498.71,56.067C498.71,53.708 496.769,51.767 494.41,51.767C492.051,51.767 490.11,53.708 490.11,56.067C490.11,56.165 490.113,56.262 490.12,56.36L490.12,66.51C490.123,66.551 490.125,66.593 490.125,66.634C490.125,67.479 489.43,68.174 488.585,68.174C487.74,68.174 487.045,67.479 487.045,66.634C487.045,66.593 487.047,66.551 487.05,66.51L487.05,50.78Z" style="fill:rgb(170,24,44);fill-rule:nonzero;"/>
    <path d="M514.47,49.14C517.61,49.14 519.47,50.22 519.47,51.48C519.465,52.171 518.91,52.743 518.22,52.77C517.03,52.77 516.58,51.77 514.49,51.77C510.68,51.77 509.18,55.47 509.18,58.61C509.18,61.75 510.68,65.44 514.49,65.44C516.65,65.44 517.21,64.44 518.18,64.44C518.196,64.439 518.212,64.439 518.229,64.439C518.86,64.439 519.379,64.958 519.379,65.589C519.379,65.636 519.376,65.683 519.37,65.73C519.37,66.88 517.66,68.13 514.49,68.13C508.84,68.13 506.12,63.56 506.12,58.65C506.12,53.74 508.84,49.16 514.49,49.16" style="fill:rgb(170,24,44);fill-rule:nonzero;"/>
    <path d="M538.81,66.61C538.81,67.394 538.164,68.04 537.38,68.04C536.596,68.04 535.95,67.394 535.95,66.61L535.95,65.32L535.88,65.32C534.794,67.035 532.909,68.087 530.88,68.11C525.65,68.11 522.71,63.54 522.71,58.63C522.71,53.72 525.65,49.14 530.88,49.14C532.832,49.17 534.67,50.078 535.88,51.61L535.95,51.61L535.95,50.61C535.95,49.826 536.596,49.18 537.38,49.18C538.164,49.18 538.81,49.826 538.81,50.61L538.81,66.61ZM530.81,65.46C534.57,65.46 535.9,61.77 535.9,58.63C535.9,55.49 534.57,51.79 530.81,51.79C527.05,51.79 525.71,55.49 525.71,58.63C525.71,61.77 527.04,65.46 530.81,65.46" style="fill:rgb(170,24,44);fill-rule:nonzero;"/>
    <path d="M549.84,49.14C552.38,49.14 556.01,50.5 556.01,52.42L556.01,52.439C556.01,53.119 555.45,53.679 554.77,53.679C554.72,53.679 554.67,53.676 554.62,53.67C553.29,53.67 552.77,51.79 549.84,51.79C548.09,51.79 546.59,52.56 546.59,54.13C546.59,57.37 556.5,57.02 556.5,62.39C556.5,66.26 553.19,68.11 549.73,68.11C545.83,68.11 542.73,66.11 542.73,64.59C542.728,64.56 542.727,64.529 542.727,64.499C542.727,63.804 543.285,63.225 543.98,63.2C545.34,63.2 546.46,65.46 549.81,65.46C552.04,65.46 553.4,64.21 553.4,62.95C553.4,59.32 543.49,59.53 543.49,54.37C543.49,50.95 546.7,49.14 549.81,49.14" style="fill:rgb(170,24,44);fill-rule:nonzero;"/>
    <path d="M148.8,103.82C148.632,104.505 148.005,104.986 147.3,104.97C147.257,104.974 147.213,104.976 147.169,104.976C146.451,104.976 145.853,104.398 145.83,103.68C145.91,103.152 146.051,102.635 146.25,102.14L153.96,81.6C154.34,80.52 154.96,79.72 156.16,79.72C157.36,79.72 157.97,80.52 158.36,81.6L166.06,102.14C166.263,102.634 166.405,103.151 166.48,103.68C166.462,104.397 165.867,104.976 165.15,104.976C165.107,104.976 165.063,104.974 165.02,104.97C164.315,104.986 163.688,104.505 163.52,103.82L161.91,99.35L150.4,99.35L148.8,103.82ZM156.2,83.27L156.13,83.27L151.35,96.7L160.98,96.7L156.2,83.27Z" style="fill:rgb(29,29,27);fill-rule:nonzero;"/>
    <path d="M169.94,87.63C169.937,87.589 169.935,87.547 169.935,87.506C169.935,86.661 170.63,85.966 171.475,85.966C172.32,85.966 173.015,86.661 173.015,87.506C173.015,87.547 173.013,87.589 173.01,87.63L173.01,89.2L173.08,89.2C173.77,87.77 175.48,85.99 177.26,85.99C177.31,85.985 177.36,85.983 177.41,85.983C178.266,85.983 178.97,86.687 178.97,87.543L178.97,87.56C178.97,88.44 178.34,88.99 177.05,89.24C175.24,89.55 173.05,90.91 173.05,94.51L173.05,103.33C173.053,103.371 173.055,103.413 173.055,103.454C173.055,104.299 172.36,104.994 171.515,104.994C170.67,104.994 169.975,104.299 169.975,103.454C169.975,103.413 169.977,103.371 169.98,103.33L169.94,87.63Z" style="fill:rgb(29,29,27);fill-rule:nonzero;"/>
    <path d="M197.35,103.51C197.35,104.294 196.704,104.94 195.92,104.94C195.136,104.94 194.49,104.294 194.49,103.51L194.49,102.22L194.42,102.22C193.325,103.95 191.417,105.003 189.37,105.01C184.13,105.01 181.2,100.44 181.2,95.52C181.2,90.6 184.13,86.03 189.37,86.03C191.342,86.045 193.203,86.959 194.42,88.51L194.49,88.51L194.49,87.51C194.49,86.726 195.136,86.08 195.92,86.08C196.704,86.08 197.35,86.726 197.35,87.51L197.35,103.51ZM189.35,102.36C193.11,102.36 194.44,98.66 194.44,95.52C194.44,92.38 193.11,88.69 189.35,88.69C185.59,88.69 184.25,92.38 184.25,95.52C184.25,98.66 185.58,102.36 189.35,102.36" style="fill:rgb(29,29,27);fill-rule:nonzero;"/>
    <path d="M217.69,103.43C217.69,108.95 214.34,112.29 209.32,112.29C206.14,112.29 202.2,110.48 202.2,108.91C202.195,108.863 202.192,108.817 202.192,108.77C202.192,108.062 202.775,107.48 203.482,107.48L203.49,107.48C204.89,107.48 206.25,109.64 209.56,109.64C213.47,109.64 214.62,106.57 214.62,103.92L214.62,102.32L214.55,102.32C213.579,103.991 211.772,105.007 209.84,104.97C204.61,104.97 201.68,100.4 201.68,95.48C201.68,90.56 204.61,85.99 209.84,85.99C211.676,86.042 213.399,86.898 214.55,88.33L214.62,88.33L214.62,87.51C214.619,87.493 214.619,87.476 214.619,87.459C214.619,86.658 215.278,85.999 216.079,85.999C216.14,85.999 216.2,86.003 216.26,86.01L216.262,86.01C217.046,86.01 217.692,86.656 217.692,87.44C217.692,87.463 217.691,87.487 217.69,87.51L217.69,103.43ZM209.84,102.32C213.61,102.32 214.93,98.62 214.93,95.48C214.93,92.34 213.61,88.65 209.84,88.65C206.07,88.65 204.75,92.34 204.75,95.48C204.75,98.62 206.07,102.32 209.84,102.32" style="fill:rgb(29,29,27);fill-rule:nonzero;"/>
    <path d="M230.32,85.99C235.55,85.99 238.48,90.56 238.48,95.48C238.48,100.4 235.55,104.97 230.32,104.97C225.09,104.97 222.2,100.4 222.2,95.51C222.2,90.62 225.13,86.02 230.37,86.02M230.37,102.35C234.13,102.35 235.46,98.65 235.46,95.51C235.46,92.37 234.13,88.68 230.37,88.68C226.61,88.68 225.2,92.34 225.2,95.51C225.2,98.68 226.53,102.35 230.3,102.35M228.94,83.35C228.57,83.538 228.165,83.647 227.75,83.67C226.995,83.603 226.412,82.958 226.42,82.2C226.42,81.78 226.67,81.3 227.65,80.91L231.65,79.27C232.018,79.087 232.42,78.981 232.83,78.96C233.581,79.027 234.163,79.666 234.16,80.42C234.16,80.84 233.91,81.33 232.94,81.71L228.94,83.35Z" style="fill:rgb(29,29,27);fill-rule:nonzero;"/>
    <path d="M242.81,87.63C242.81,86.791 243.501,86.1 244.34,86.1C245.179,86.1 245.87,86.791 245.87,87.63L245.87,88.37L245.94,88.44C247.167,86.861 249.071,85.951 251.07,85.99C253.93,85.99 257.53,87.81 257.53,92.99L257.53,103.28C257.533,103.321 257.535,103.363 257.535,103.404C257.535,104.249 256.84,104.944 255.995,104.944C255.15,104.944 254.455,104.249 254.455,103.404C254.455,103.363 254.457,103.321 254.46,103.28L254.46,93.21C254.463,93.141 254.465,93.072 254.465,93.003C254.465,90.644 252.524,88.703 250.165,88.703C247.806,88.703 245.865,90.644 245.865,93.003C245.865,93.072 245.867,93.141 245.87,93.21L245.87,103.33C245.87,104.169 245.179,104.86 244.34,104.86C243.501,104.86 242.81,104.169 242.81,103.33L242.81,87.63Z" style="fill:rgb(29,29,27);fill-rule:nonzero;"/>
    <path d="M42.2,83.51C42.2,80.487 39.713,78 36.69,78C33.667,78 31.18,80.487 31.18,83.51C31.18,86.533 33.667,89.02 36.69,89.02C39.711,89.015 42.195,86.531 42.2,83.51" style="fill:rgb(170,24,44);fill-rule:nonzero;"/>
    <path d="M57.81,83.51C57.81,80.487 55.323,78 52.3,78C49.277,78 46.79,80.487 46.79,83.51C46.79,86.533 49.277,89.02 52.3,89.02C55.321,89.015 57.805,86.531 57.81,83.51" style="fill:rgb(170,24,44);fill-rule:nonzero;"/>
    <path d="M73.41,83.51C73.41,80.487 70.923,78 67.9,78C64.877,78 62.39,80.487 62.39,83.51C62.39,86.529 64.871,89.015 67.89,89.02C70.914,89.02 73.405,86.534 73.41,83.51" style="fill:rgb(170,24,44);fill-rule:nonzero;"/>
    <path d="M89.01,83.51C89.01,80.487 86.523,78 83.5,78C80.477,78 77.99,80.487 77.99,83.51C77.99,86.529 80.471,89.015 83.49,89.02C86.514,89.02 89.005,86.534 89.01,83.51" style="fill:rgb(170,24,44);fill-rule:nonzero;"/>
    <path d="M26.61,83.51C26.61,80.487 24.123,78 21.1,78C18.077,78 15.59,80.487 15.59,83.51C15.59,86.533 18.077,89.02 21.1,89.02C24.123,89.02 26.61,86.533 26.61,83.51" style="fill:rgb(170,24,44);fill-rule:nonzero;"/>
    <path d="M42.2,67.9C42.2,64.877 39.713,62.39 36.69,62.39C33.667,62.39 31.18,64.877 31.18,67.9C31.18,70.923 33.667,73.41 36.69,73.41C39.713,73.41 42.2,70.923 42.2,67.9" style="fill:rgb(170,24,44);fill-rule:nonzero;"/>
    <path d="M57.81,67.9C57.81,64.877 55.323,62.39 52.3,62.39C49.277,62.39 46.79,64.877 46.79,67.9C46.79,70.923 49.277,73.41 52.3,73.41C55.323,73.41 57.81,70.923 57.81,67.9" style="fill:rgb(170,24,44);fill-rule:nonzero;"/>
    <path d="M73.41,67.9C73.41,64.877 70.923,62.39 67.9,62.39C64.877,62.39 62.39,64.877 62.39,67.9C62.39,70.919 64.871,73.405 67.89,73.41C70.914,73.41 73.405,70.924 73.41,67.9" style="fill:rgb(170,24,44);fill-rule:nonzero;"/>
    <path d="M89.01,67.9C89.01,64.877 86.523,62.39 83.5,62.39C80.477,62.39 77.99,64.877 77.99,67.9C77.99,70.919 80.471,73.405 83.49,73.41C86.514,73.41 89.005,70.924 89.01,67.9" style="fill:rgb(170,24,44);fill-rule:nonzero;"/>
    <path d="M26.61,67.9C26.61,64.877 24.123,62.39 21.1,62.39C18.077,62.39 15.59,64.877 15.59,67.9C15.59,70.923 18.077,73.41 21.1,73.41C24.123,73.41 26.61,70.923 26.61,67.9" style="fill:rgb(170,24,44);fill-rule:nonzero;"/>
    <path d="M42.2,99.09C42.2,96.067 39.713,93.58 36.69,93.58C33.667,93.58 31.18,96.067 31.18,99.09C31.18,102.113 33.667,104.6 36.69,104.6C39.713,104.6 42.2,102.113 42.2,99.09" style="fill:rgb(170,24,44);fill-rule:nonzero;"/>
    <path d="M57.81,99.09C57.81,96.067 55.323,93.58 52.3,93.58C49.277,93.58 46.79,96.067 46.79,99.09C46.79,102.113 49.277,104.6 52.3,104.6C55.323,104.6 57.81,102.113 57.81,99.09" style="fill:rgb(170,24,44);fill-rule:nonzero;"/>
    <path d="M73.41,99.09C73.41,96.067 70.923,93.58 67.9,93.58C64.877,93.58 62.39,96.067 62.39,99.09C62.39,102.109 64.871,104.595 67.89,104.6C70.914,104.6 73.405,102.114 73.41,99.09" style="fill:rgb(170,24,44);fill-rule:nonzero;"/>
    <path d="M89.01,99.09C89.01,96.067 86.523,93.58 83.5,93.58C80.477,93.58 77.99,96.067 77.99,99.09C77.99,102.109 80.471,104.595 83.49,104.6C86.514,104.6 89.005,102.114 89.01,99.09" style="fill:rgb(170,24,44);fill-rule:nonzero;"/>
    <path d="M26.61,99.09C26.61,96.067 24.123,93.58 21.1,93.58C18.077,93.58 15.59,96.067 15.59,99.09C15.59,102.113 18.077,104.6 21.1,104.6C24.123,104.6 26.61,102.113 26.61,99.09" style="fill:rgb(170,24,44);fill-rule:nonzero;"/>
    <path d="M42.2,52.3C42.2,49.277 39.713,46.79 36.69,46.79C33.667,46.79 31.18,49.277 31.18,52.3C31.18,55.323 33.667,57.81 36.69,57.81C39.713,57.81 42.2,55.323 42.2,52.3" style="fill:rgb(170,24,44);fill-rule:nonzero;"/>
    <path d="M57.81,52.3C57.81,49.277 55.323,46.79 52.3,46.79C49.277,46.79 46.79,49.277 46.79,52.3C46.79,55.323 49.277,57.81 52.3,57.81C55.323,57.81 57.81,55.323 57.81,52.3" style="fill:rgb(170,24,44);fill-rule:nonzero;"/>
    <path d="M73.41,52.3C73.41,49.277 70.923,46.79 67.9,46.79C64.877,46.79 62.39,49.277 62.39,52.3C62.39,55.319 64.871,57.805 67.89,57.81C70.914,57.81 73.405,55.324 73.41,52.3" style="fill:rgb(170,24,44);fill-rule:nonzero;"/>
    <path d="M89.01,52.3C89.01,49.277 86.523,46.79 83.5,46.79C80.477,46.79 77.99,49.277 77.99,52.3C77.99,55.319 80.471,57.805 83.49,57.81C86.514,57.81 89.005,55.324 89.01,52.3" style="fill:rgb(170,24,44);fill-rule:nonzero;"/>
    <path d="M26.61,52.3C26.61,49.277 24.123,46.79 21.1,46.79C18.077,46.79 15.59,49.277 15.59,52.3C15.59,55.323 18.077,57.81 21.1,57.81C24.123,57.81 26.61,55.323 26.61,52.3" style="fill:rgb(170,24,44);fill-rule:nonzero;"/>
    <path d="M11.02,52.3C11.02,49.277 8.533,46.79 5.51,46.79C2.487,46.79 0,49.277 0,52.3C0,55.319 2.481,57.805 5.5,57.81C8.524,57.81 11.015,55.324 11.02,52.3" style="fill:rgb(170,24,44);fill-rule:nonzero;"/>
    <path d="M120.2,52.3C120.2,49.277 117.713,46.79 114.69,46.79C111.667,46.79 109.18,49.277 109.18,52.3C109.18,55.323 111.667,57.81 114.69,57.81C117.713,57.81 120.2,55.323 120.2,52.3" style="fill:rgb(170,24,44);fill-rule:nonzero;"/>
    <path d="M104.61,52.3C104.61,49.277 102.123,46.79 99.1,46.79C96.077,46.79 93.59,49.277 93.59,52.3C93.59,55.319 96.071,57.805 99.09,57.81C102.114,57.81 104.605,55.324 104.61,52.3" style="fill:rgb(170,24,44);fill-rule:nonzero;"/>
    <path d="M42.2,36.71L42.2,36.7C42.2,33.677 39.713,31.19 36.69,31.19C33.667,31.19 31.18,33.677 31.18,36.7C31.18,39.723 33.667,42.21 36.69,42.21C39.709,42.21 42.195,39.729 42.2,36.71" style="fill:rgb(170,24,44);fill-rule:nonzero;"/>
    <path d="M57.81,36.71L57.81,36.7C57.81,33.677 55.323,31.19 52.3,31.19C49.277,31.19 46.79,33.677 46.79,36.7C46.79,39.723 49.277,42.21 52.3,42.21C55.319,42.21 57.805,39.729 57.81,36.71" style="fill:rgb(170,24,44);fill-rule:nonzero;"/>
    <path d="M73.41,36.71L73.41,36.7C73.41,33.677 70.923,31.19 67.9,31.19C64.877,31.19 62.39,33.677 62.39,36.7C62.39,39.719 64.871,42.205 67.89,42.21L67.9,42.21C70.919,42.21 73.405,39.729 73.41,36.71" style="fill:rgb(170,24,44);fill-rule:nonzero;"/>
    <path d="M89.01,36.71L89.01,36.7C89.01,33.677 86.523,31.19 83.5,31.19C80.477,31.19 77.99,33.677 77.99,36.7C77.99,39.719 80.471,42.205 83.49,42.21L83.5,42.21C86.519,42.21 89.005,39.729 89.01,36.71" style="fill:rgb(170,24,44);fill-rule:nonzero;"/>
    <path d="M104.61,83.51C104.61,80.487 102.123,78 99.1,78C96.077,78 93.59,80.487 93.59,83.51C93.59,86.529 96.071,89.015 99.09,89.02C102.114,89.02 104.605,86.534 104.61,83.51" style="fill:rgb(170,24,44);fill-rule:nonzero;"/>
    <path d="M104.61,67.9C104.61,64.877 102.123,62.39 99.1,62.39C96.077,62.39 93.59,64.877 93.59,67.9C93.59,70.919 96.071,73.405 99.09,73.41C102.114,73.41 104.605,70.924 104.61,67.9" style="fill:rgb(170,24,44);fill-rule:nonzero;"/>
    <path d="M104.61,99.09C104.61,96.067 102.123,93.58 99.1,93.58C96.077,93.58 93.59,96.067 93.59,99.09C93.59,102.109 96.071,104.595 99.09,104.6C102.114,104.6 104.605,102.114 104.61,99.09" style="fill:rgb(170,24,44);fill-rule:nonzero;"/>
    <path d="M104.61,36.71L104.61,36.7C104.61,33.677 102.123,31.19 99.1,31.19C96.077,31.19 93.59,33.677 93.59,36.7C93.59,39.719 96.071,42.205 99.09,42.21L99.1,42.21C102.119,42.21 104.605,39.729 104.61,36.71" style="fill:rgb(170,24,44);fill-rule:nonzero;"/>
    <path d="M26.61,36.71L26.61,36.7C26.61,33.677 24.123,31.19 21.1,31.19C18.077,31.19 15.59,33.677 15.59,36.7C15.59,39.723 18.077,42.21 21.1,42.21L21.11,42.21C24.127,42.21 26.61,39.727 26.61,36.71" style="fill:rgb(170,24,44);fill-rule:nonzero;"/>
    <path d="M42.2,21.11C42.2,18.087 39.713,15.6 36.69,15.6C33.667,15.6 31.18,18.087 31.18,21.11C31.18,24.133 33.667,26.62 36.69,26.62C39.713,26.62 42.2,24.133 42.2,21.11" style="fill:rgb(170,24,44);fill-rule:nonzero;"/>
    <path d="M57.81,21.11C57.81,18.087 55.323,15.6 52.3,15.6C49.277,15.6 46.79,18.087 46.79,21.11C46.79,24.133 49.277,26.62 52.3,26.62C55.323,26.62 57.81,24.133 57.81,21.11" style="fill:rgb(170,24,44);fill-rule:nonzero;"/>
    <path d="M73.41,21.11C73.41,18.087 70.923,15.6 67.9,15.6C64.877,15.6 62.39,18.087 62.39,21.11C62.39,24.129 64.871,26.615 67.89,26.62C70.914,26.62 73.405,24.134 73.41,21.11" style="fill:rgb(170,24,44);fill-rule:nonzero;"/>
    <path d="M89.01,21.11C89.01,18.087 86.523,15.6 83.5,15.6C80.477,15.6 77.99,18.087 77.99,21.11C77.99,24.129 80.471,26.615 83.49,26.62C86.514,26.62 89.005,24.134 89.01,21.11" style="fill:rgb(170,24,44);fill-rule:nonzero;"/>
    <path d="M57.81,5.51C57.81,2.487 55.323,0 52.3,0C49.277,0 46.79,2.487 46.79,5.51C46.79,8.533 49.277,11.02 52.3,11.02C55.323,11.02 57.81,8.533 57.81,5.51" style="fill:rgb(170,24,44);fill-rule:nonzero;"/>
    <path d="M73.41,5.51C73.41,2.487 70.923,0 67.9,0C64.877,0 62.39,2.487 62.39,5.51C62.39,8.529 64.871,11.015 67.89,11.02C70.914,11.02 73.405,8.534 73.41,5.51" style="fill:rgb(170,24,44);fill-rule:nonzero;"/>
</svg>
