<?xml version="1.0" encoding="utf-8"?>
<svg width="500px" height="500px" viewBox="0 0 500 500" version="1.1" xmlns:xlink="http://www.w3.org/1999/xlink" xmlns="http://www.w3.org/2000/svg">
  <defs>
    <path d="M0 0L500 0L500 500L0 500L0 0Z" id="path_1" />
    <rect width="500" height="500" id="artboard_1" />
    <clipPath id="clip_1">
      <use xlink:href="#artboard_1" clip-rule="evenodd" />
    </clipPath>
    <clipPath id="clip_2">
      <use xlink:href="#path_1" />
    </clipPath>
  </defs>
  <g id="Artboard" clip-path="url(#clip_1)">
    <g id="Rectangle">
      <use stroke="none" fill="#FFFFFF" xlink:href="#path_1" fill-rule="evenodd" />
      <g clip-path="url(#clip_2)">
        <use xlink:href="#path_1" fill="none" stroke="#979797" stroke-width="2" />
      </g>
    </g>
    <g id="Logo-Ruiz-Lizondo---cuadrado" transform="translate(85 83)">
      <g id="Group">
        <path d="M0 0L330 0L330 330L0 330L0 0Z" id="Rectangle" fill="none" fill-rule="evenodd" stroke="none" />
        <g id="XMLID_91_" transform="translate(4.199997 4)">
          <path d="M2.5 10.8C2.2 10.9 2 11 1.9 11.1C1.8 11.3 1.7 11.4 1.7 11.6C1.7 11.8 1.7 12 1.8 12.2L0.999999 12.3L0.599999 7.3L1.4 7.2C1.4 7.39999 1.4 7.59999 1.4 7.7C1.5 7.8 1.6 7.89999 1.7 8C1.8 8.10001 2.1 8.10001 2.4 8C2.4 8 2.8 7.89999 3.6 7.7C4.3 7.5 5.3 7.3 6.5 7L6.2 2.7C5 2.59999 3.9 2.5 3.2 2.39999C2.4 2.29999 2 2.29999 2 2.29999C1.7 2.29999 1.5 2.29999 1.3 2.39999C1.2 2.5 1.1 2.59999 1.1 2.7C1.1 2.8 1.1 3 1.1 3.2L0.3 3.3L0 0.100006L0.8 0C0.8 0.199997 0.8 0.399994 0.8 0.600006C0.900001 0.800003 1 0.900009 1.1 1.10001C1.2 1.20001 1.5 1.3 1.8 1.40001C1.8 1.40001 2.2 1.40001 2.8 1.50002C3.5 1.60002 4.3 1.60002 5.4 1.80002C6.5 1.90002 7.7 2.00002 9 2.20001C10.3 2.30002 11.7 2.50002 13.1 2.60001L24.3 3.8L24.4 5.5C20.3 6.5 16.7 7.3 13.5 8.10001C12.1 8.40001 10.8 8.8 9.5 9.10001C8.2 9.40001 7 9.70001 6 9.90001C5 10.2 4.1 10.4 3.5 10.5C2.8 10.7 2.5 10.8 2.5 10.8L2.5 10.8ZM6.9 2.89999L7.2 7C8.1 6.8 9.1 6.60001 10.1 6.3C11.1 6 12.2 5.8 13.2 5.5C14.2 5.2 15.3 5 16.3 4.8C17.3 4.5 18.2 4.3 19.1 4.10001C18.2 4 17.3 3.90001 16.3 3.8C15.3 3.7 14.2 3.60001 13.1 3.5C12 3.39999 10.9 3.3 9.9 3.2C8.9 3.09999 7.9 2.99998 6.9 2.89999L6.9 2.89999Z" transform="translate(7.200001 173.70001)" id="XMLID_178_" fill="#21211F" fill-rule="evenodd" stroke="none" />
          <path d="M21 11.1L7.1 14.3C6.5 14.4 5.9 14.5 5.3 14.4C4.7 14.3 4.1 14.1 3.6 13.8C3.1 13.5 2.6 13 2.2 12.5C1.8 11.9 1.5 11.2 1.3 10.4C1.3 10.4 1.3 10.3 1.2 10.1C1.2 9.89999 1.1 9.7 1 9.49998C0.9 9.29999 0.9 8.99998 0.8 8.69998C0.7 8.39998 0.7 8.09998 0.6 7.79999L0 5.39999L0.9 5.2C0.9 5.39999 0.9 5.5 1 5.59999C1.1 5.7 1.2 5.79999 1.3 5.79999C1.5 5.89999 1.7 5.89999 2 5.79999L21.9 1.29999C22.2 1.19998 22.4 1.09999 22.5 0.999985C22.6 0.899979 22.7 0.799988 22.7 0.599991C22.7 0.499985 22.7 0.299988 22.6 0.199997L23.4 0L24.5 5C24.7 5.8 24.7 6.60001 24.6 7.3C24.5 8 24.2 8.60001 23.9 9.10001C23.5 9.60001 23.1 10.1 22.6 10.4C22.2 10.8 21.6 11 21 11.1L21 11.1ZM23.4 3.3L1.7 8.3L2.2 10.3C2.3 10.7 2.5 11 2.8 11.4C3.1 11.8 3.4 12 3.8 12.2C4.4 12.4 5.1 12.5 6 12.3L21.3 8.80002C21.7 8.70001 22.1 8.60002 22.4 8.40002C22.8 8.10002 23.1 7.80002 23.4 7.50003C23.6 7.20003 23.8 6.80003 23.8 6.40002C23.9 6.00003 23.9 5.70003 23.8 5.30002C23.8 5.00002 23.7 4.60002 23.6 4.40002L23.4 3.3L23.4 3.3Z" transform="translate(9.700001 191.7)" id="XMLID_175_" fill="#21211F" fill-rule="evenodd" stroke="none" />
          <path d="M26.2 12.4C26.2 12.2 26.1 12.1 26 12C25.9 11.9 25.8 11.9 25.6 11.9C25.4 11.9 25.2 11.9 24.9 12L5.9 19.6001C5.6 19.7001 5.4 19.8 5.3 20C5.2 20.1001 5.2 20.3 5.2 20.3C5.2 20.4001 5.2 20.6001 5.4 20.7L4.6 21L3.1 17.2L3.9 16.9C3.9 17.1 4 17.2 4.1 17.3C4.2 17.4 4.3 17.5 4.5 17.5C4.7 17.6 4.9 17.5 5.2 17.4L22.4 10.5C20 10.8 17.9 11.1 16 11.4C15.2 11.5 14.4 11.6 13.6 11.7C12.8 11.8 12.1 11.9 11.5 12C10.9 12.1 10.4 12.1 10 12.2C9.6 12.3 9.4 12.3 9.4 12.3L8.9 11C9.3 10.7 9.8 10.3 10.4 9.90002C10.9 9.50003 11.5 9.10002 12.1 8.60002C12.7 8.20003 13.3 7.70003 13.9 7.30002C14.5 6.90002 15.1 6.50002 15.6 6.10002C16.9 5.10002 18.2 4.20003 19.6 3.20003L2.4 10.1C2.1 10.2 1.9 10.3 1.8 10.5C1.7 10.6 1.7 10.7 1.7 10.9C1.7 11.1 1.7 11.2 1.9 11.3L1.1 11.6L0 8.90001L0.799999 8.60001C0.799999 8.8 0.9 8.90001 0.9 9C1 9.10001 1.1 9.2 1.3 9.2C1.5 9.2 1.7 9.2 2 9.09999L21 1.49998C21.3 1.39998 21.5 1.19998 21.6 1.09999C21.7 0.899994 21.7 0.799988 21.8 0.699997C21.8 0.599991 21.8 0.5 21.6 0.300003L22.4 0L23.6 3.10001L13 11L26.1 9.2L27.3 12.2L26.2 12.4L26.2 12.4Z" transform="translate(15.799998 209.79996)" id="XMLID_173_" fill="#21211F" fill-rule="evenodd" stroke="none" />
          <path d="M3.2 13.7C2.9 13.9 2.7 14 2.7 14.2C2.6 14.4 2.6 14.5 2.6 14.6C2.6 14.7 2.7 14.9 2.8 15L2 15.4L0 11.8L0.799999 11.4C0.799999 11.6 0.9 11.7 1 11.8C1.1 11.8 1.2 11.9 1.3 11.9C1.5 11.9 1.7 11.8 2 11.7L19.9 1.69998C20.2 1.49998 20.4 1.39998 20.5 1.19998C20.6 0.999985 20.6 0.899979 20.6 0.799988C20.6 0.699982 20.5 0.499985 20.4 0.399994L21.1 0L23.1 3.60001L22.4 4C22.3 3.8 22.3 3.7 22.2 3.60001C22.1 3.5 22 3.5 21.8 3.5C21.6 3.5 21.4 3.60001 21.1 3.7L3.2 13.7L3.2 13.7Z" transform="translate(25.300003 228.90001)" id="XMLID_171_" fill="#21211F" fill-rule="evenodd" stroke="none" />
          <path d="M24.4 6.79997L26.1 9.19997L25.4 9.69997C25.3 9.49997 25.2 9.39996 25.1 9.29997C25 9.19997 24.9 9.19997 24.7 9.19997C24.5 9.19997 24.3 9.29997 24 9.49997L6 22.6L4.3 20.3L16.6 4.29999L2.4 14.6C2.1 14.8 2 15 1.9 15.1C1.8 15.3 1.8 15.4 1.9 15.5C1.9 15.6 2 15.8 2.2 15.9L1.7 16.6L0 14.2L0.700001 13.7C0.799999 13.9 0.900001 14 1 14.1C1.1 14.2 1.2 14.2 1.4 14.2C1.6 14.2 1.8 14.1 2 13.9L18.5 1.79999C18.8 1.59999 18.9 1.39999 19 1.29999C19.1 1.09999 19.1 0.999985 19 0.899994C19 0.799988 18.9 0.599991 18.7 0.5L19.4 0L21.4 2.8L8.4 19.7L23.5 8.70001C23.8 8.50002 23.9 8.30002 24 8.20001C24.1 8.00002 24.1 7.90001 24 7.80002C24 7.70001 23.9 7.50002 23.7 7.40002L24.4 6.79997L24.4 6.79997Z" transform="translate(33.1 239.40002)" id="XMLID_169_" fill="#21211F" fill-rule="evenodd" stroke="none" />
          <path d="M3.5 17.7C3.3 17.9 3.1 18.1 3.1 18.3C3.1 18.5 3.1 18.6 3.1 18.7C3.1 18.8 3.2 18.9 3.4 19L2.8 19.6L0 16.6L0.599998 16C0.699997 16.2 0.799999 16.3 0.899998 16.3C0.999996 16.3 1.1 16.3 1.3 16.3C1.5 16.3 1.7 16.2 1.9 15.9L16.9 1.89999C17.1 1.69998 17.3 1.5 17.3 1.29999C17.3 1.09998 17.4 1 17.3 0.899994C17.2 0.799988 17.1 0.699982 17 0.600006L17.6 0L20.4 3L19.8 3.60001C19.7 3.39999 19.6 3.30002 19.5 3.30002C19.4 3.30002 19.3 3.30002 19.1 3.30002C18.9 3.30002 18.7 3.50003 18.5 3.70001L3.5 17.7L3.5 17.7Z" transform="translate(47.1 254.69998)" id="XMLID_167_" fill="#21211F" fill-rule="evenodd" stroke="none" />
          <path d="M12.8 9.5C12.7 12 12.3 14 11.8 15.7C11.2 17.4 10.3 18.8 9.1 19.8C8.7 20.1 8.2 20.4 7.7 20.6C7.2 20.8 6.7 21 6.2 21C5.7 21.1 5.2 21 4.6 20.9C4.1 20.8 3.5 20.5 3 20C2.6 19.7 2.40001 19.4 2.2 19C2 18.6 1.90001 18.3 1.8 18C1.7 17.7 1.5 17.5 1.4 17.4C1.3 17.3 1 17.4 0.700001 17.7L0 17.1L3.9 12.5L4.59999 13.1C4.19999 13.4 3.9 13.8 3.59999 14.1C3.29999 14.5 3.09999 14.8 2.9 15.2C2.7 15.5 2.59999 15.8 2.5 16.2C2.4 16.5 2.3 16.9 2.3 17.2C2.3 17.6 2.39999 17.9 2.5 18.3C2.59999 18.7 2.9 19 3.19999 19.3C3.39999 19.5 3.79999 19.7 4.19999 19.8C4.59999 19.9 5.09999 19.9 5.39999 19.9C6.29999 19.7 6.99999 19.2 7.49999 18.5C7.99999 17.8 8.39999 17 8.59999 16C8.79998 15.1 8.99999 14.2 8.99999 13.2C8.99999 12.2 9.09999 11.4 9.09999 10.8C9.09999 9.60001 9.29998 8.50003 9.49999 7.40002C9.79999 6.40002 10.1 5.50003 10.5 4.70001C10.9 3.90002 11.3 3.20001 11.9 2.60001C12.4 2 13 1.5 13.6 1C14.5 0.399994 15.4 0 16.3 0C17.2 0 18.1 0.399994 19.1 1.20001C19.4 1.5 19.6 1.80002 19.8 2.20001C19.9 2.60001 20 2.90002 20.1 3.20001C20.2 3.5 20.3 3.70001 20.4 3.70001C20.5 3.80002 20.7 3.60001 21.1 3.30002L21.8 3.90002L18 8.40002L17.3 7.80002C18 7.00003 18.5 6.30002 18.9 5.60001C19.2 5 19.4 4.30002 19.5 3.60001C19.6 2.89999 19.3 2.30002 18.7 1.80002C18.4 1.50003 18 1.30002 17.6 1.20001C17.2 1.10001 16.8 1 16.4 1.10001C15.5 1.30002 14.8 1.70001 14.3 2.39999C13.8 3 13.5 3.69998 13.3 4.5C13.1 5.29999 13 6.10001 12.9 6.89999C12.9 8 12.9 8.80002 12.8 9.5L12.8 9.5Z" transform="translate(57.4 264.8)" id="XMLID_165_" fill="#21211F" fill-rule="evenodd" stroke="none" />
          <path d="M19.4 5.79999L17.4 8.79999L16.7 8.29999C17 7.79999 17.2 7.39999 17.3 7C17.4 6.70001 17.4 6.29999 17.4 5.89999C17.3 5.5 17.1 5.19998 16.8 4.89999L15.6 4.10001L3.8 22.3C3.60001 22.6 3.5 22.8 3.5 23C3.5 23.2 3.5 23.3 3.6 23.4C3.7 23.5 3.8 23.6 3.9 23.6L3.4 24.3L0 22.1L0.5 21.4C0.599998 21.6 0.699997 21.6 0.900002 21.6C1 21.6 1.1 21.6 1.3 21.6C1.5 21.5 1.60001 21.4 1.8 21.1L13.6 2.89999L12.4 2.10001C12 1.80002 11.6 1.80002 11.2 1.89999C10.8 2 10.5 2.19998 10.3 2.39999C10 2.69998 9.60001 3 9.30001 3.5L8.50001 3L10.5 0L19.4 5.79999L19.4 5.79999Z" transform="translate(75.2 273.7)" id="XMLID_163_" fill="#21211F" fill-rule="evenodd" stroke="none" />
          <path d="M9.49998 25.4C9.59998 25.5 9.79998 25.5 9.89998 25.5C9.99998 25.5 10.1 25.5 10.2 25.5L9.89998 26.2C9.69998 26.2 9.49998 26.3 9.29998 26.3C9.09998 26.3 8.79998 26.2 8.49998 26.1C8.19997 26 7.99998 25.8 7.79998 25.6C7.59998 25.4 7.39998 25.1 7.29998 24.8C7.19998 24.5001 7.09998 24.1 7.09998 23.7C7.09998 23.3 7.19998 22.8 7.49998 22.2L9.79999 17.2C9.99998 16.8 10.1 16.4001 10.1 16C10.1 15.7 9.99999 15.4 9.89999 15.2C9.8 15 9.59999 14.8 9.39999 14.6C9.2 14.4 8.99999 14.3 8.8 14.2L7.49999 13.6L3.8 21.6C3.7 21.9 3.6 22.1 3.6 22.3C3.6 22.5001 3.7 22.6 3.7 22.6C3.8 22.7 3.89999 22.8 4.1 22.8L3.7 23.6L0 21.9L0.400002 21.1C0.5 21.2 0.599998 21.3 0.800003 21.3C0.900001 21.3 1 21.3 1.2 21.2C1.4 21.1 1.50001 20.9001 1.60001 20.6L10.3 2.00003C10.4 1.70004 10.5 1.50003 10.5 1.30002C10.5 1.10001 10.4 1.00003 10.3 0.900024C10.2 0.800018 10.1 0.800018 9.9 0.700012L10.2 0L14.6 2C15.4 2.39999 16 2.79999 16.4 3.29999C16.9 3.79999 17.2 4.39999 17.4 5C17.6 5.60001 17.7 6.20001 17.6 6.79999C17.5 7.39999 17.4 8 17.1 8.59998L15.5 11.9C15.1 12.7 14.6 13.4 13.8 13.9C13 14.5 12.1 14.7 11.1 14.7C12 15.7 12.2 16.9 11.6 18.2L9.30001 23.0999C9.10001 23.5999 8.90001 24.0999 8.80001 24.4999C8.89998 24.9 9.09998 25.2 9.49998 25.4L9.49998 25.4ZM12.9 2L7.89998 12.6L9.49998 13.4C9.69997 13.5 9.89998 13.5 10.2 13.5C10.5 13.5 10.8 13.4 11.2 13.3C11.5 13.2 11.9 13 12.2 12.7C12.6 12.4 12.8 12 13.1 11.5L15.3 6.79996C15.5 6.29996 15.7 5.79996 15.7 5.29996C15.7 4.79996 15.6 4.39996 15.5 4.09995C15.4 3.69995 15.2 3.39993 15 3.19995C14.8 2.99994 14.6 2.79996 14.4 2.69995L12.9 2L12.9 2Z" transform="translate(90.800026 283.3)" id="XMLID_160_" fill="#21211F" fill-rule="evenodd" stroke="none" />
          <path d="M10.6 22.6C10.5 22.9 10.6 23.2 10.7 23.3C10.8 23.5 10.9 23.6 11.1 23.7C11.3 23.8 11.5 23.9 11.7 23.9L11.5 24.7L6.8 23.3L6.99999 22.5C7.19999 22.6 7.39999 22.7 7.49999 22.7C7.59999 22.7 7.69999 22.6 7.89999 22.5C7.99999 22.4 8.09999 22.2 8.2 21.9C8.2 21.9 8.3 21.5 8.39999 20.7C8.49999 19.9 8.59999 18.9 8.8 17.7L4.7 16.5C4.1 17.6 3.7 18.5 3.3 19.2C2.99999 19.9 2.8 20.3 2.8 20.3C2.6 20.6 2.6 20.8 2.6 21C2.6 21.2 2.7 21.3 2.8 21.3C2.89999 21.4 3.1 21.4 3.3 21.5L3.1 22.3L0 21.4L0.199997 20.6C0.399994 20.7 0.599998 20.8 0.799995 20.8C0.999992 20.8 1.2 20.8 1.3 20.7C1.49999 20.6 1.6 20.4 1.8 20.1C1.8 20.1 1.99999 19.8 2.2 19.2C2.5 18.6 2.89999 17.9 3.39999 16.9C3.89999 16 4.39999 14.9 4.99999 13.7C5.59999 12.5 6.19999 11.3 6.89999 10L12 0L13.6 0.5C13 4.60001 12.6 8.29999 12.1 11.6C11.9 13 11.7 14.4 11.5 15.7C11.3 17 11.2 18.2 11 19.3C10.9 20.4 10.8 21.2 10.7 21.9C10.6 22.2 10.6 22.6 10.6 22.6L10.6 22.6ZM4.79999 15.6L8.69999 16.8C8.79999 15.9 8.99999 14.9 9.09999 13.8C9.19999 12.7 9.39999 11.7 9.49999 10.6C9.59999 9.49997 9.8 8.49997 9.89999 7.49997C9.99999 6.49997 10.2 5.49997 10.3 4.69998C9.89999 5.49997 9.39999 6.29999 8.99999 7.19998C8.49999 8.09998 8.09999 9.09998 7.59999 9.99997C7.09999 11 6.59999 11.9 6.19999 12.9C5.69999 13.8 5.29999 14.7 4.79999 15.6L4.79999 15.6Z" transform="translate(111.20001 292.40002)" id="XMLID_157_" fill="#21211F" fill-rule="evenodd" stroke="none" />
          <path d="M7.47496 0.835937C7.07497 0.835937 6.77496 0.835937 6.47496 0.935944C6.17496 1.03595 5.87495 1.23593 5.57497 1.43594C5.27496 1.73593 5.07497 2.03595 4.87497 2.53595C4.67497 2.93594 4.47498 3.53595 4.37497 4.23596C4.27496 5.13596 4.07497 6.33597 3.87497 7.63596C3.67497 8.93594 3.47498 10.236 3.27496 11.636C3.07497 13.0359 2.87497 14.4359 2.67496 15.736C2.47496 17.0359 2.37495 18.136 2.17496 19.136C1.97496 20.5359 2.07495 21.5359 2.47496 22.236C2.87495 22.936 3.37495 23.236 4.07497 23.436C4.67497 23.536 5.17497 23.536 5.67497 23.436C6.17497 23.336 6.57497 23.136 6.97498 22.836C7.37497 22.536 7.67497 22.136 7.97498 21.536C8.27498 20.936 8.47498 20.236 8.57498 19.436L8.67499 18.536L9.47499 18.636L9.17499 20.336C8.97499 21.836 8.37498 22.836 7.47499 23.536C6.575 24.236 5.37498 24.436 3.97499 24.236C3.27499 24.136 2.575 23.836 1.97499 23.436C1.37498 23.036 0.874985 22.436 0.474991 21.636C0.274994 21.136 0.0749969 20.636 0.0749969 20.036C-0.0250092 19.436 -0.0250092 18.7361 0.0749969 17.936C0.175003 17.136 0.274994 16.236 0.375 15.136C0.574997 14.036 0.675003 12.8361 0.975006 11.3361C1.27501 9.43606 1.47501 7.83606 1.675 6.53607C1.875 5.23608 2.175 4.23608 2.375 3.33606C2.575 2.63605 2.875 2.03607 3.375 1.53607C3.77499 1.03607 4.375 0.636078 4.875 0.436066C5.77499 0.0360718 6.675 -0.0639343 7.47501 0.0360718C7.57501 0.0360718 7.675 0.0360718 7.77501 0.136078C7.87502 0.136078 7.97501 0.136078 8.07501 0.236084L7.97501 0.136078C8.07501 0.236084 8.175 0.236084 8.27501 0.236084C8.77501 0.436096 9.175 0.636078 9.47501 0.83609C9.77501 1.0361 9.97501 1.23608 10.175 1.33609C10.375 1.4361 10.475 1.4361 10.675 1.4361C10.975 1.33609 11.175 1.0361 11.175 0.636108C11.175 0.636108 11.275 0.636108 11.275 0.636108C11.275 0.636108 11.275 0.636108 11.375 0.636108L11.975 0.736115L11.075 6.5361L10.375 6.4361C10.375 6.0361 10.475 5.73608 10.475 5.33609C10.475 5.0361 10.475 4.63608 10.475 4.23608C10.475 3.83609 10.375 3.4361 10.275 3.03607C10.275 2.93607 10.175 2.73608 10.075 2.53607C9.97504 2.33606 9.77504 2.03607 9.57504 1.83606C9.37505 1.53607 9.07504 1.33606 8.67505 1.13605C8.47496 0.935944 7.97496 0.835937 7.47496 0.835937L7.47496 0.835937Z" transform="translate(134.12505 296.26407)" id="XMLID_155_" fill="#21211F" fill-rule="evenodd" stroke="none" />
          <path d="M3.3 22.3C3.3 22.6 3.3 22.8 3.40001 23C3.50002 23.2 3.60001 23.2 3.70001 23.3C3.80002 23.4 4.00002 23.4 4.10001 23.3L4.10001 24.2L0 24.1L0 23.2C0.199997 23.3 0.300003 23.3 0.5 23.2C0.600006 23.2 0.699997 23.1 0.800003 23C0.900009 22.9 1 22.6 1 22.3L1.7 1.79999C1.7 1.5 1.7 1.19998 1.59999 1.09998C1.49998 0.899963 1.39999 0.899963 1.39999 0.799988C1.29999 0.699982 1.09999 0.699982 0.899994 0.799988L0.899994 0L5 0.100006L5 0.899994C4.8 0.799988 4.7 0.799988 4.60001 0.899994C4.5 0.899994 4.40001 1 4.3 1.19998C4.2 1.29999 4.10001 1.59998 4.10001 1.89999L3.3 22.3L3.3 22.3Z" transform="translate(153.4 297.59998)" id="XMLID_153_" fill="#21211F" fill-rule="evenodd" stroke="none" />
          <path d="M6.13751 29.6C5.63751 29.6 5.03751 29.6 4.53751 29.4C4.03751 29.3 3.53751 29 3.03751 28.6C2.53751 28.2 2.13751 27.8 1.83751 27.2C1.53751 26.6 1.33751 25.9 1.2375 25.1L0.0375061 9.70001C-0.0625 9 0.0375061 8.40002 0.337509 7.70001C0.537506 7.10001 0.937515 6.60001 1.33751 6.20001C1.7375 5.80002 2.2375 5.5 2.7375 5.20001C3.2375 5 3.7375 4.80002 4.33751 4.80002C4.83751 4.80002 5.43752 4.80002 5.93751 5.00003C6.53752 5.20004 7.03752 5.50003 7.53752 5.90002C8.03752 6.30002 8.43752 6.70001 8.73752 7.30002C9.03752 7.80002 9.23752 8.40002 9.23752 9.00003L10.4375 24.4C10.5375 25.2 10.4375 25.9 10.2375 26.6C10.0375 27.2 9.73752 27.7 9.33752 28.1C8.93753 28.5 8.43753 28.8001 7.93753 29.1C7.2375 29.4 6.63751 29.5 6.13751 29.6L6.13751 29.6ZM6.93752 10.2C6.83751 9.30002 6.83751 8.60001 6.73752 8C6.63751 7.39999 6.53752 6.89999 6.43752 6.60001C6.23752 6.20001 6.03752 6 5.73752 5.89999C5.43752 5.79999 4.93752 5.69998 4.43752 5.79999C3.83751 5.79999 3.43752 6 3.13751 6.09998C2.83751 6.29999 2.63751 6.59998 2.53751 6.89996C2.4375 7.29996 2.33751 7.79996 2.4375 8.39996C2.4375 8.99997 2.53751 9.69995 2.53751 10.6L3.53751 24.4C3.63751 25.3 3.63751 26 3.7375 26.6C3.83751 27.2 3.9375 27.7 4.1375 28C4.33749 28.3 4.53749 28.6 4.83749 28.7C5.1375 28.8 5.53749 28.8 6.1375 28.8C6.6375 28.8 7.1375 28.7 7.33749 28.5C7.6375 28.3 7.83749 28.1 7.9375 27.7C8.03751 27.3 8.1375 26.9 8.03751 26.3C8.03751 25.7 7.9375 25 7.9375 24.1L6.93752 10.2L6.93752 10.2ZM4.63751 0.700012C4.93752 0.300018 5.23752 0 5.53751 0C5.7375 0 5.9375 0.100006 6.13751 0.200012C6.33751 0.400024 6.43752 0.600006 6.43752 0.800018C6.43752 1.10001 6.13751 1.60001 5.43752 2.20001L2.83751 4.40002L2.63751 4.20001L4.63751 0.700012L4.63751 0.700012Z" transform="translate(166.4625 292)" id="XMLID_149_" fill="#21211F" fill-rule="evenodd" stroke="none" />
          <path d="M8.19998 0.600006L11.1 0L11.3 0.799988C11.1 0.799988 10.9 0.799988 10.8 0.899994C10.7 1 10.6 1.10001 10.6 1.19998C10.5 1.39999 10.5 1.59998 10.6 1.89999L15.4 23.7L12.6 24.3L2.89998 6.59998L6.69998 23.8C6.79999 24.1 6.89998 24.3 6.99999 24.4C7.09999 24.5 7.19998 24.6 7.39998 24.6C7.49998 24.6 7.69998 24.6 7.89998 24.5L8.09998 25.4L5.19998 26L4.99998 25.1C5.19998 25.1 5.29999 25.1 5.49998 25C5.59999 24.9 5.69998 24.8 5.79999 24.7C5.89999 24.5 5.89999 24.3 5.79999 24L1.39999 4C1.29999 3.70001 1.2 3.5 1.09999 3.39999C0.999985 3.29999 0.799988 3.19998 0.699997 3.19998C0.599991 3.19998 0.399994 3.19998 0.199997 3.29999L0 2.5L3.39999 1.79999L13.7 20.6L9.7 2.29999C9.59999 2 9.5 1.79999 9.39999 1.69998C9.29999 1.59998 9.09999 1.49997 9 1.49997C8.89999 1.49997 8.7 1.49997 8.5 1.59998L8.19998 0.600006L8.19998 0.600006Z" transform="translate(183.40002 293.4)" id="XMLID_147_" fill="#21211F" fill-rule="evenodd" stroke="none" />
          <path d="M11.5 2.79999L17.9 15.6C18.2 16.1 18.3 16.7 18.4 17.3C18.5 17.9 18.4 18.5 18.2 19.1C18 19.7 17.7 20.3 17.3 20.8C16.9 21.3 16.2 21.8 15.5 22.2C15.5 22.2 15.4 22.3 15.2 22.3C15.1 22.4 14.9 22.5 14.7 22.6C14.5 22.7 14.2 22.9 14 23C13.7 23.1 13.5 23.3 13.2 23.4L11 24.5L10.5 23.8C10.7 23.8 10.8 23.7 10.9 23.6C11 23.5 11 23.4 11 23.2C11 23 11 22.8 10.8 22.5L1.59998 4.19998C1.49997 3.89999 1.29997 3.69998 1.19998 3.59998C1.09998 3.49997 0.899979 3.49997 0.799988 3.49997C0.699982 3.49997 0.499985 3.59998 0.399994 3.69998L0 2.89999L4.60001 0.600006C5.40001 0.200012 6.10001 0 6.8 0C7.5 0 8.10001 0.100006 8.7 0.299988C9.3 0.5 9.8 0.799988 10.3 1.29999C10.8 1.79999 11.2 2.29999 11.5 2.79999L11.5 2.79999ZM3.29997 2.39999L13.3 22.3L15.1 21.4C15.4 21.2 15.7 20.9 16 20.6C16.3 20.3 16.5 19.9 16.6 19.4C16.7 18.8 16.5 18.1 16.2 17.2L9.19998 3.09998C8.99998 2.69998 8.79999 2.39996 8.49998 2.09998C8.09999 1.79999 7.79999 1.49997 7.39998 1.39996C6.99998 1.29996 6.59998 1.19995 6.29997 1.19995C5.89998 1.19995 5.59998 1.29996 5.29997 1.39996C4.99997 1.49997 4.69997 1.69995 4.39998 1.79996L3.29997 2.39999L3.29997 2.39999Z" transform="translate(214.30003 283.2)" id="XMLID_144_" fill="#21211F" fill-rule="evenodd" stroke="none" />
          <path d="M19.4 17.1L21.4 20L13.7 25.4L13.2 24.7C13.4 24.6 13.5 24.6 13.5 24.5C13.6 24.4 13.6 24.3 13.6 24.1C13.6 23.9 13.5 23.7 13.3 23.4L1.7 6.5C1.5 6.20001 1.3 6.10001 1.2 6C1 5.89999 0.899994 5.89999 0.800003 5.89999C0.699997 5.89999 0.600006 6 0.5 6.10001L0 5.39999L7.7 0L9.7 2.89999L9 3.39999C8.7 3 8.39999 2.60001 8 2.39999C7.7 2.19998 7.39999 2 7 1.89999C6.60001 1.79999 6.2 1.89999 5.89999 2.10001L3 4.10001L9.2 13.1L11.1 11.8C11.3 11.6 11.5 11.4 11.5 11.2C11.5 11 11.5 10.8 11.5 10.6C11.4 10.3 11.3 10.1 11.1 9.80002L11.7 9.40002L14.1 12.8L13.5 13.2C13.3 12.9 13.1 12.7 12.9 12.6C12.7 12.5 12.5 12.4 12.3 12.3C12.1 12.2 11.8 12.3 11.6 12.5L9.69998 13.8L15.8 22.7L18.7 20.7C19.1 20.4 19.3 20.1 19.3 19.8C19.4 19.4 19.3 19.1 19.2 18.7C19.1 18.3 18.9 17.9 18.6 17.4L19.4 17.1L19.4 17.1Z" transform="translate(230.7 271.79996)" id="XMLID_142_" fill="#21211F" fill-rule="evenodd" stroke="none" />
          <path d="M6.6001 0L9.2001 2.39999L8.6001 3.10001C8.2001 2.80002 7.80011 2.5 7.40009 2.30002C7.1001 2.20001 6.70007 2.10001 6.30008 2.10001C5.90009 2.10001 5.60007 2.20001 5.20007 2.60001L2.70007 5.39999L10.8001 12.7L11.7001 11.7C12.5001 10.8 12.9001 10.3 12.8001 9.99997C12.8001 9.79996 12.7001 9.59998 12.6001 9.39996C12.5001 9.19995 12.3001 8.89996 12.0001 8.69995L12.5001 8.09995L15.6001 10.8999L15.1001 11.4999C14.9001 11.2999 14.6001 11.0999 14.4001 10.9999C14.2 10.8999 14.0001 10.7999 13.7 10.7999C13.5 10.7999 12.9001 11.1999 12.2 12.0999L11.3 13.0999L18.7 19.7999C18.9001 19.9999 19.1 20.0999 19.3 20.1999C19.5001 20.1999 19.6 20.1999 19.7 20.1999C19.8 20.0999 19.9001 19.9999 20 19.8999L20.7 20.4999L18 23.4999L17.3 22.8999C17.5 22.7999 17.6 22.6999 17.6 22.5999C17.7 22.4999 17.7 22.3999 17.6 22.2C17.6 21.9999 17.4 21.8 17.2 21.5999L2 7.89993C1.70001 7.69992 1.5 7.59995 1.29999 7.49994C1.09998 7.49994 1 7.49994 0.899994 7.59995C0.799988 7.59995 0.699982 7.69995 0.600006 7.89993L0 7.39993L6.6001 0L6.6001 0Z" transform="translate(253.9999 250.9)" id="XMLID_140_" fill="#21211F" fill-rule="evenodd" stroke="none" />
          <path d="M20 13.7C20.3 13.9 20.5 14 20.7 14C20.9001 14 21 14 21.1 13.9C21.2 13.8 21.3001 13.7 21.4 13.5L22.1 14L19.7 17.4L19 16.9C19.2 16.8 19.3 16.7 19.3 16.5C19.3 16.4 19.3 16.3 19.2 16.1C19.1 15.9 19 15.8 18.7 15.6L2.10001 3.70001C1.80002 3.50002 1.60001 3.40001 1.39999 3.40001C1.19998 3.40001 1.10001 3.40001 1 3.40001C0.899994 3.50002 0.799988 3.60001 0.700012 3.8L0 3.3L2.39999 0L3.10001 0.5C3 0.600006 2.89999 0.699997 2.80002 0.899994C2.80002 1 2.80002 1.09999 2.90002 1.29999C3.00003 1.49998 3.10004 1.59999 3.40002 1.79999L20 13.7L20 13.7Z" transform="translate(265.09995 241.6)" id="XMLID_138_" fill="#21211F" fill-rule="evenodd" stroke="none" />
          <path d="M4.10001 2.60001L5.5 0L6.20001 0.399994C6.10001 0.599991 6 0.699997 6 0.799988C6 0.899994 6 1.09999 6.10001 1.19998C6.20001 1.39998 6.39999 1.49998 6.60001 1.69998L26.1 12.4L24.7 14.9L5 10.5L20.4 18.9C20.7 19.1 20.9 19.1 21.1 19.1C21.3 19.1 21.4 19 21.5 18.9C21.6 18.8 21.7 18.7 21.7 18.5L22.5 18.9L21.1 21.5L20.3 21.1C20.4 21 20.5 20.8 20.5 20.7C20.5 20.6 20.5 20.4 20.4 20.3C20.3 20.1 20.2 20 19.9 19.8L2.00003 10C1.70004 9.8 1.50003 9.8 1.30002 9.8C1.10001 9.8 1.00003 9.90001 0.900024 10C0.800018 10.1 0.700012 10.2 0.700012 10.4L0 10L1.60001 7L22.5 11.6L6.10001 2.60001C5.80002 2.40001 5.60001 2.40001 5.39999 2.40001C5.19998 2.40001 5.10001 2.50002 5 2.60001C4.89999 2.70001 4.79999 2.8 4.79999 3L4.10001 2.60001L4.10001 2.60001Z" transform="translate(271.9 225)" id="XMLID_136_" fill="#21211F" fill-rule="evenodd" stroke="none" />
          <path d="M1.00412 4.49998C0.904114 4.89998 0.904114 5.19998 0.904114 5.49998C0.904114 5.79999 1.00412 6.19998 1.2041 6.49998C1.40411 6.79999 1.7041 7.09999 2.1041 7.39998C2.50409 7.69998 3.00409 7.99998 3.7041 8.19998C4.6041 8.49998 5.6041 8.89998 6.90411 9.39998C8.10413 9.89998 9.40411 10.3 10.7041 10.8C12.0041 11.3 13.3041 11.8 14.6041 12.2C15.8041 12.6 16.9041 13 17.8041 13.4C19.1041 13.9 20.2041 14 20.9041 13.8C21.6041 13.6 22.1041 13.1 22.4041 12.4C22.6041 11.9 22.7041 11.3 22.7041 10.8C22.7041 10.3 22.6041 9.79996 22.4041 9.39996C22.2041 8.99997 21.8041 8.49997 21.3041 8.19997C20.8041 7.79997 20.1041 7.49997 19.3041 7.19997L18.4041 6.89996L18.7041 6.19997L20.3041 6.79997C21.7041 7.29997 22.6041 8.09998 23.1041 9.09997C23.6041 10.1 23.6041 11.3 23.0041 12.7C22.8041 13.4 22.3041 14 21.8041 14.5C21.2041 15 20.5041 15.4 19.8041 15.6C19.3041 15.7 18.8041 15.8 18.2041 15.7C17.6041 15.6 17.0041 15.5 16.2041 15.3C15.4041 15.1 14.5041 14.8 13.5041 14.4C12.5041 14 11.304 13.6 9.90405 13.1C8.10406 12.4 6.50406 11.8 5.30405 11.4C4.10403 10.9 3.10403 10.5 2.40405 10C1.80405 9.70001 1.20404 9.20001 0.904053 8.70001C0.504059 8.20001 0.304047 7.60001 0.104065 7.00002C-0.0959473 6.00002 0.00405884 5.10002 0.304077 4.30002C0.304077 4.20001 0.404083 4.10002 0.404083 4.00002C0.404083 3.90001 0.504089 3.80002 0.504089 3.70001L0.404083 3.70001C0.504089 3.60001 0.504089 3.50002 0.604095 3.50002C0.904083 3.10002 1.1041 2.70001 1.40408 2.50002C1.70407 2.30002 1.90408 2.10002 2.1041 1.90001C2.2041 1.8 2.30411 1.60001 2.30411 1.50002C2.2041 1.20001 2.00412 1.00002 1.6041 0.800018C1.6041 0.800018 1.6041 0.700012 1.7041 0.700012C1.7041 0.700012 1.7041 0.700012 1.7041 0.600006L1.90411 0L7.40411 2.10001L7.10413 2.8C6.80414 2.7 6.40411 2.60001 6.00412 2.5C5.70413 2.39999 5.30411 2.39999 5.00412 2.3C4.60413 2.2 4.20413 2.2 3.80411 2.3C3.7041 2.3 3.50412 2.3 3.30411 2.40001C3.00412 2.50002 2.80411 2.60001 2.50412 2.70001C2.20413 2.90001 1.90411 3.10001 1.70413 3.40001C1.2041 3.59999 1.10413 3.99998 1.00412 4.49998L1.00412 4.49998Z" transform="translate(282.39587 208.40001)" id="XMLID_134_" fill="#21211F" fill-rule="evenodd" stroke="none" />
          <path d="M22.8 1.3C23.1 1.3 23.4 1.3 23.5 1.2C23.7 1.09999 23.8 0.899994 23.9 0.800003C24 0.600006 24 0.400009 24 0.199997L24.8 0.399994L23.8 5.29999L23 5.09999C23.1 4.89999 23.1 4.7 23.1 4.59999C23.1 4.49998 23 4.39999 22.9 4.2C22.8 4.09999 22.6 4 22.3 4C22.3 4 21.9 4 21.1 3.89999C20.3 3.89999 19.3 3.79999 18.1 3.7L17.2 7.89999C18.4 8.39999 19.3 8.79999 20 9C20.7 9.3 21.1 9.39999 21.1 9.39999C21.4 9.5 21.6 9.59999 21.8 9.5C21.9 9.39999 22.1 9.39999 22.1 9.3C22.2 9.2 22.2 9 22.2 8.8L23 9L22.3 12.2L21.5 12C21.6 11.8 21.6 11.6 21.6 11.4C21.6 11.2 21.5 11 21.4 10.9C21.3 10.7 21.1 10.6 20.8 10.4C20.8 10.4 20.5 10.3 19.9 10C19.3 9.8 18.5 9.39999 17.5 9C16.5 8.60001 15.4 8.10001 14.2 7.60001C13 7.10001 11.7 6.60001 10.4 6L0 1.7L0.399994 0C4.60001 0.199997 8.29999 0.399994 11.5 0.600006C12.9 0.700012 14.3 0.700012 15.6 0.800003C16.9 0.900009 18.1 0.900009 19.2 1C20.3 1.10001 21.1 1.10001 21.8 1.10001C22.4 1.3 22.8 1.3 22.8 1.3L22.8 1.3ZM16.3 7.5L17.2 3.5C16.3 3.39999 15.3 3.39999 14.2 3.3C13.1 3.2 12.1 3.2 11 3.10001C9.89996 3 8.89996 3 7.79996 2.90001C6.79996 2.8 5.79996 2.8 4.99997 2.8C5.79996 3.2 6.69998 3.5 7.59998 3.90001C8.59998 4.3 9.49997 4.70001 10.5 5.10001C11.5 5.5 12.5 5.90001 13.5 6.3C14.5 6.8 15.4 7.2 16.3 7.5L16.3 7.5Z" transform="translate(287.7 193.7)" id="XMLID_131_" fill="#21211F" fill-rule="evenodd" stroke="none" />
          <path d="M10.3246 4.19998C12.3246 2.79999 14.2246 1.89998 15.9246 1.29999C17.6246 0.699982 19.2246 0.699982 20.8246 1.09999C21.3246 1.29999 21.8246 1.49998 22.3246 1.7C22.8246 1.89999 23.2246 2.3 23.5246 2.59999C23.9246 2.99998 24.1246 3.39999 24.3246 3.89999C24.5246 4.39999 24.6246 5 24.6246 5.7C24.6246 6.09999 24.5246 6.59999 24.3246 6.89999C24.1246 7.29999 23.9246 7.59999 23.7246 7.89999C23.5246 8.2 23.5246 8.39999 23.5246 8.59999C23.5246 8.79999 23.7246 8.89999 24.2246 8.89999L24.1246 9.79999L18.1246 9.39999L18.2246 8.5C18.7246 8.60001 19.2246 8.7 19.6246 8.7C20.0246 8.7 20.5246 8.7 20.9246 8.59999C21.2245 8.49998 21.6246 8.39999 21.9246 8.29999C22.2245 8.19998 22.5246 7.99999 22.8246 7.79999C23.1245 7.59999 23.3246 7.29999 23.5246 6.99999C23.7246 6.69998 23.8246 6.29999 23.9246 5.79999C24.0246 5.49998 23.9246 5.09999 23.7245 4.69998C23.5245 4.29999 23.3246 3.89998 23.0245 3.69998C22.3245 3.09998 21.5245 2.79999 20.6245 2.79999C19.7245 2.79999 18.8246 2.99998 18.0245 3.39999C17.1245 3.79999 16.3245 4.2 15.5245 4.7C14.7245 5.2 14.0245 5.7 13.5245 6C12.5245 6.7 11.5245 7.3 10.6245 7.7C9.72455 8.09999 8.72455 8.39999 7.92453 8.5C7.02454 8.7 6.22452 8.7 5.42453 8.7C4.62454 8.59999 3.92453 8.5 3.12454 8.3C2.02454 7.90001 1.22455 7.40001 0.724548 6.7C0.124542 6 -0.0754395 5 0.0245361 3.8C0.0245361 3.40001 0.224548 3 0.42453 2.7C0.624542 2.39999 0.824524 2.09999 1.02454 1.8C1.22455 1.60001 1.32452 1.40001 1.22455 1.2C1.22455 1.09999 0.92456 1 0.524536 0.899994L0.624542 0L6.52454 0.399994L6.42453 1.29999C5.42453 1.19998 4.52454 1.19998 3.72452 1.29999C3.02451 1.39999 2.42453 1.59999 1.82452 1.99998C1.22452 2.39998 0.92453 2.99998 0.824524 3.79999C0.824524 4.19998 0.824524 4.69998 1.02454 5.09999C1.22455 5.49998 1.42453 5.79999 1.62454 6.09999C2.32455 6.7 3.12454 6.99999 3.82455 6.99999C4.62454 6.99999 5.32455 6.89998 6.12454 6.59999C6.92453 6.29999 7.62454 5.89999 8.32455 5.49998C9.1246 4.89998 9.82458 4.49998 10.3246 4.19998L10.3246 4.19998Z" transform="translate(289.8754 173.10002)" id="XMLID_129_" fill="#21211F" fill-rule="evenodd" stroke="none" />
          <path d="M46.2 12.8255L43.9 11.8255L44 13.3255C44 13.3255 44 13.4255 43.9 13.7255C43.7 14.1255 43.5 14.2255 43.3 14.2255C43.2 14.2255 43.1 14.2255 43 14.2255C42.3 14.1255 41.6 13.8255 40.7 13.4255L32.2 9.72548C30.1 8.82548 28.2 8.92548 26.5 10.0255C26.3 8.62548 25.8 7.42548 25 6.32549C23.9 5.02548 22.7 3.92548 21.2 3.32549L15.4 0.825485C14.4 0.325485 13.3 0.125488 12.1 0.0254822C11 -0.0745163 9.8 0.125481 8.8 0.525482C7.7 0.925484 6.7 1.52548 5.8 2.42548C4.9 3.32549 4.1 4.42548 3.5 5.82549L0 13.9255L2.5 15.0255L2.7 14.3255C2.8 14.1255 2.8 14.0255 2.8 13.9255C2.8 13.9255 2.9 13.8255 3.3 13.8255C3.4 13.8255 3.7 13.8255 4.1 14.0255L36.3 28.1255C36.8 28.3255 37 28.5255 37 28.6255C37.1 28.7255 37.1 28.8255 37.1 28.8255L37 29.0255L37 29.1255L36.3 29.7255L39.1 30.9255L42.4 23.4255L39.6 22.2255L39.6 23.1255C39.6 23.3255 39.5 23.3255 39.5 23.4255C39.5 23.4255 39.4 23.4255 39.2 23.5255C39.1 23.5255 38.8 23.5255 38.4 23.3255L25.1 17.5255L25.8 15.9255C26 15.6255 26.2 15.3255 26.4 15.0255C26.6 14.7255 26.9 14.5255 27.2 14.3255C27.5 14.1255 27.9 14.0255 28.4 14.0255C28.9 14.0255 29.5 14.2255 30.2 14.5255L38.9 18.3255C39.9 18.7255 40.8 18.9255 41.7 18.9255C42.5 18.9255 43.2 18.8255 43.8 18.5255C44.4 18.2255 45 17.9255 45.4 17.5255C45.8 17.1255 46.2 16.6255 46.4 16.1255C46.7 15.5255 46.8 14.9255 46.8 14.5255C46.8 14.1255 46.7 13.7255 46.6 13.3255L46.2 12.8255L46.2 12.8255ZM12.2 5.02548L20.2 8.52548C21 8.92548 21.7 9.32549 22.2 9.82549C22.7 10.3255 23 10.9255 23.2 11.4255C23.4 11.9255 23.5 12.4255 23.5 12.9255C23.5 13.3255 23.4 13.7255 23.3 13.9255L22.3 16.2255L4.99999 8.62549L5.99999 6.32549C6.09999 6.12549 6.29999 5.82549 6.69999 5.52548C6.99999 5.22548 7.49999 4.92548 7.99999 4.82549C8.49999 4.62549 9.19999 4.52548 9.89999 4.52548L9.99999 3.92548L9.99999 3.92548L9.99999 4.52548C10.7 4.52548 11.4 4.72548 12.2 5.02548L12.2 5.02548Z" transform="translate(5.100006 95.87451)" id="XMLID_126_" fill="#21211F" fill-rule="evenodd" stroke="none" />
          <path d="M38.8 22L14.2 3.4C13.7 3 13.5 2.8 13.5 2.7C13.4 2.60001 13.4 2.50001 13.4 2.50001C13.4 2.40001 13.5 2.30001 13.6 2.2L14.3 1.7L12.1 0L7.2 6.5L9.4 8.2L9.7 7.5C9.8 7.4 9.8 7.2 9.9 7.2C9.9 7.2 10 7.2 10.2 7.2C10.3 7.2 10.5 7.3 11 7.7L34.3 25.4C36.6 27.1 38 28.6 38.5 29.8C39 30.9 38.9 31.8 38.3 32.6C37.7 33.4 36.8 33.7 35.7 33.5C34.4 33.3 32.6 32.3 30.4 30.6L23.7 25.5C22 24.2 20.1 22.8 18.2 21.3C16.2 19.8 14.4 18.5 12.8 17.3L7.1 12.7C6.6 12.3 6.5 12.1 6.4 12C6.3 11.8 6.3 11.7 6.3 11.7C6.3 11.6 6.4 11.6 6.5 11.5L7.1 11L4.9 9.3L0 15.8L2.2 17.5L2.5 16.8C2.6 16.6 2.7 16.5 2.7 16.5C2.7 16.5 2.8 16.4 3.1 16.4C3.2 16.4 3.4 16.4 3.9 16.8L11.5 22.6C12.9 23.7 14.4 24.8 15.9 25.9C17.4 27 18.9 28.1 20.3 29.2L28.5 35.4C29.6 36.2 30.6 36.7 31.8 37C32.4 37.1 33 37.2 33.6 37.2C34.1 37.2 34.6 37.2 35.1 37.1C36.2 36.9 37.2 36.5 38.1 36C39 35.4 39.7 34.7 40.3 34C40.9 33.2 41.3 32.3 41.6 31.3C41.9 30.3 42 29.2 41.9 28.1C41.8 27 41.5 25.9 41 24.9C40.6 23.7 39.8 22.8 38.8 22L38.8 22Z" transform="translate(22.7 58.899998)" id="XMLID_125_" fill="#21211F" fill-rule="evenodd" stroke="none" />
          <path d="M31.9 30.6C31.8 30.8 31.8 30.8 31.8 30.8L31.6 30.9C31.6 30.9 31.5 30.9 31.4 30.9C31.3 30.9 31.1 30.8 30.7 30.4L7.4 3.9C7 3.4 6.9 3.2 6.9 3.1C6.9 2.8 6.9 2.7 6.9 2.7C6.9 2.7 7 2.6 7.2 2.5L7.9 2.1L6.1 0L0 5.4L1.8 7.5L2.2 6.9C2.3 6.7 2.4 6.6 2.4 6.6C2.4 6.6 2.6 6.6 2.8 6.7C2.9 6.7 3.1 6.8 3.5 7.3L26.8 33.6C27.2 34 27.2 34.3 27.2 34.3C27.2 34.5 27.2 34.6 27.2 34.6C27.2 34.7 27.1 34.7 26.9 34.8L26.1 35.1L28.1 37.3L34.2 31.9L32.2 29.7L31.9 30.6L31.9 30.6Z" transform="translate(48.4 39.499996)" id="XMLID_124_" fill="#21211F" fill-rule="evenodd" stroke="none" />
          <path d="M28.8 31.6L29.1 32.1C29.5 32.8 29.8 33.5 29.9 34.2C30.1 34.7 30.1 35.2 30 35.8C29.9 36.3 29.6 36.7 29.1 37L25.1 39.4L14.1 1.8L13 0L0 7.8L3.7 14L6 12.6L5.7 12.1C5.3 11.4 5 10.7 4.8 10C4.7 9.5 4.7 8.9 4.8 8.3C4.89999 7.8 5.2 7.4 5.7 7.1L9.6 4.8L20.7 41.9L20.6 42L21.6 43.7L22 44.2L34.9 36.4L31.1 30.1L28.8 31.6L28.8 31.6Z" transform="translate(69.700005 20.199997)" id="XMLID_123_" fill="#21211F" fill-rule="evenodd" stroke="none" />
          <path d="M19.5 33.9L19.6 34.5C19.7 35.3 19.7 36.1 19.6 36.7C19.5 37.2 19.3 37.7 19 38.2C18.7 38.6 18.3 38.8 17.7 38.9L12.9 39.7L7.2 4C7.09999 3.4 7.2 3.1 7.2 3.1C7.3 2.9 7.3 2.8 7.3 2.8C7.40001 2.8 7.5 2.7 7.7 2.7L8.5 2.8L8.10001 0L0 1.3L0.399994 4L1.09999 3.7C1.29999 3.6 1.39999 3.6 1.39999 3.6C1.39999 3.6 1.59999 3.7 1.79999 3.8C1.89999 3.9 1.99998 4 2.09999 4.6L7.59999 39.3C7.7 39.8 7.59999 40.1 7.59999 40.1C7.49998 40.3 7.39999 40.3 7.39999 40.3L7.2 40.4C7.2 40.4 7.09999 40.4 7 40.4L6.10001 40.2L6.60001 43.1L23.1 40.5L22 33.3L19.5 33.9L19.5 33.9Z" transform="translate(127.7 2.3999963)" id="XMLID_122_" fill="#21211F" fill-rule="evenodd" stroke="none" />
          <path d="M1.09999 3L1.89999 2.8C2 2.8 2.2 2.8 2.29999 2.8C2.29999 2.8 2.39999 2.9 2.49998 3.1C2.49998 3.2 2.59999 3.4 2.59999 4L1.7 39.1C1.7 39.7 1.59999 39.9 1.5 39.9C1.39999 40 1.3 40.1 1.3 40.1L1.10001 40.1C1 40.1 1 40.1 0.900009 40L0.100006 39.7L0 42.7L8.2 42.9L8.3 39.9L7.5 40.2C7.39999 40.2 7.3 40.2 7.3 40.2L7.10001 40.1C7.10001 40.1 7 40.1 6.90001 39.9C6.90001 39.8 6.8 39.6 6.8 39.1L7.7 4C7.7 3.4 7.8 3.2 7.89999 3.1C8.09999 2.9 8.2 2.8 8.2 2.8C8.2 2.8 8.39999 2.8 8.5 2.8L9.2 3L9.3 0.2L1.10001 0L1.09999 3L1.09999 3Z" transform="translate(161.30002 0)" id="XMLID_121_" fill="#21211F" fill-rule="evenodd" stroke="none" />
          <path d="M7.29997 7.1L9.89998 7.7L9.99998 7.1C10.2 6.3 10.5 5.6 10.8 5C11.1 4.5 11.5 4.1 11.9 3.8C12.3 3.5 12.8 3.4 13.4 3.5L17.8 4.5L0.599991 39.2L0.399994 39.2L0 41.2L0 41.8L14.7 44.9L16.2 37.7L13.6 37.1L13.5 37.7C13.3 38.5 13 39.2 12.7 39.8C12.5 40.3 12.1 40.7 11.7 41C11.3 41.3 10.8 41.4 10.2 41.2L5.69998 40.2L23.2 5.19999L23.7 3.19999L8.79997 0L7.29997 7.1L7.29997 7.1Z" transform="translate(181.00003 2.3999963)" id="XMLID_120_" fill="#21211F" fill-rule="evenodd" stroke="none" />
          <path d="M27.45 11.0735C27.85 9.77351 28.05 8.57351 27.85 7.3735C27.65 6.1735 27.25 5.07351 26.65 4.07351C26.25 3.3735 25.65 2.67351 25.05 2.17351C24.45 1.57351 23.75 1.17351 23.05 0.773506C21.55 0.0735054 19.95 -0.126493 18.15 0.0735054C17.05 0.273506 15.95 0.673506 14.95 1.27351C13.95 1.87351 13.05 2.77351 12.35 3.87351C11.45 5.07351 10.45 6.77351 9.45001 8.77351C8.45001 10.7735 7.25002 13.2735 5.85001 16.3735L3.05 22.2735C2.25 23.9735 1.65001 25.4735 1.15001 26.7735C0.650009 28.0735 0.350006 29.2735 0.150009 30.2735C-0.0499878 31.2735 -0.0499878 32.2735 0.150009 33.2735C0.350006 34.7735 0.950012 36.0735 1.85001 37.1735C2.75 38.2735 3.75 39.1735 4.95001 39.6735C6.05002 40.1735 7.35001 40.4735 8.65001 40.4735L8.95001 40.4735C10.35 40.4735 11.75 39.9735 13.05 39.2735C13.85 38.7735 14.65 38.1735 15.25 37.3735C15.85 36.5735 16.55 35.5735 17.25 34.3735C17.95 33.1735 18.65 31.6735 19.45 29.9735L22.25 24.0735C23.65 21.0735 24.85 18.4735 25.75 16.4735C26.45 14.2735 27.15 12.4735 27.45 11.0735L27.45 11.0735ZM22.75 10.1735L20.25 15.4735C19.25 17.4735 18.35 19.6735 17.35 21.7735C16.25 23.9735 15.25 26.0735 14.35 28.1735L11.85 33.4735C10.85 35.5735 9.95003 36.8735 8.95003 37.4735C8.45003 37.7735 8.05003 37.8735 7.55003 37.8735C7.05003 37.8735 6.45003 37.7735 5.95003 37.4735C4.75003 36.9735 4.15002 36.1735 3.95003 35.0735C3.75003 33.9735 4.15002 32.3735 5.05003 30.2735L15.95 6.97351C16.95 4.87351 17.95 3.67351 18.95 3.17351C19.45 2.97351 19.95 2.87351 20.45 2.87351C20.95 2.87351 21.45 2.97351 21.95 3.17351C22.95 3.57351 23.55 4.37351 23.85 5.47351C24.05 6.47351 23.75 8.07351 22.75 10.1735L22.75 10.1735Z" transform="translate(209.84999 15.22649)" id="XMLID_117_" fill="#21211F" fill-rule="evenodd" stroke="none" />
          <path d="M39.6999 14.5C39.7999 14.5 39.8999 14.4 40.0999 14.4C40.1999 14.4 40.2999 14.5 40.4999 14.8L40.9999 15.4L42.7999 13.2L37.8999 9.2L36.0999 11.4L36.7999 11.7C37 11.8 37.0999 11.9 37.1999 12C37.1999 12 37.2999 12.2 37.2999 12.4C37.2999 12.5 37.1999 12.7 36.8999 13.1L19.3999 34.7L32.1 4.4L26.7 0L24.9 2.2L25.6 2.5C25.8 2.6 25.9 2.7 26 2.8C26 2.8 26.1 3 26.1 3.2C26.1 3.3 26 3.5 25.7 3.9L3.7 31.2C3.39999 31.6 3.2 31.7 3.09999 31.7C2.89999 31.7 2.7 31.7 2.7 31.7C2.59999 31.7 2.5 31.6 2.3 31.4L1.8 30.8L0 33L4.89999 37L6.7 34.8L6 34.5C5.7 34.4 5.60001 34.2 5.60001 34.2C5.60001 34.2 5.5 34 5.5 33.8C5.5 33.7 5.5 33.5 5.89999 33.1L22.1 13L10.2 41.4L14.8 45.1L39.2 14.9C39.3999 14.7 39.5999 14.6 39.6999 14.5L39.6999 14.5Z" transform="translate(232.30008 30.699997)" id="XMLID_116_" fill="#21211F" fill-rule="evenodd" stroke="none" />
          <path d="M40.4 18.1C41 17.1 41.4 16.1 41.7 14.9C41.9 13.8 41.9 12.6 41.6 11.3C41.3 10.1 40.7 8.8 39.8 7.6L34.1 0L31.8 1.7L32.4 2.2C32.5 2.3 32.6 2.39999 32.6 2.5C32.6 2.5 32.6 2.6 32.5 2.8C32.5 2.9 32.3 3.10001 31.9 3.4L3.79999 24.4C3.29999 24.7 3.09998 24.8 3 24.8C2.89999 24.8 2.79999 24.8 2.79999 24.8C2.69998 24.7 2.59998 24.6 2.59998 24.5L2.29999 23.8L0 25.5L3.89999 30.7C4.19998 31.1 4.5 31.5 4.79999 31.8C5.09998 32.1 5.29999 32.4 5.39999 32.6L5.69998 33C6.59998 34.2 7.69998 35.2 8.79999 35.8C9.89999 36.4 11.1 36.8 12.2 36.9C12.5 36.9 12.8 37 13.1 37C13.9 37 14.7 36.9 15.5 36.6C16.6 36.3 17.6 35.8 18.5 35.1L38.1 20.4C39 19.9 39.8 19.1 40.4 18.1L40.4 18.1ZM38.2 12.6C38.1 13.2 37.9 13.8 37.4 14.4C37 14.9 36.6 15.3 36.1 15.7L14.5 31.9C13.3 32.7 12.3 33.2 11.3 33.2C10.6 33.2 10 33 9.39999 32.7C8.79999 32.3 8.29999 31.9 7.89999 31.6L6.19998 29.3L35.8 7.09999L36.6 8.19999C36.9 8.59999 37.2 8.99999 37.4 9.49999C37.7 9.99999 37.9 10.5 38 11C38.3 11.4 38.3 12 38.2 12.6L38.2 12.6Z" transform="translate(256.3 60.100002)" id="XMLID_113_" fill="#21211F" fill-rule="evenodd" stroke="none" />
          <path d="M40.625 7.60406C40.525 6.70406 40.325 5.90406 40.025 5.20406C39.425 3.70406 38.325 2.40405 36.825 1.40405C35.925 0.804054 34.825 0.304054 33.625 0.10405C32.425 -0.0959473 31.125 0.00405121 29.925 0.304047C28.425 0.60405 26.625 1.20405 24.525 2.00404C22.425 2.80405 19.925 3.90405 16.825 5.20404L10.825 7.80404C9.12497 8.50404 7.62497 9.20404 6.42499 9.90404C5.125 10.504 4.125 11.204 3.32498 11.804C2.52499 12.404 1.82498 13.204 1.32498 14.004C0.524994 15.204 0.0249939 16.604 0.0249939 18.104C-0.0750122 19.504 0.125 20.904 0.625 22.104C1.125 23.304 1.92499 24.404 3.02499 25.304C4.125 26.204 5.42499 26.804 6.82498 27.104C7.32498 27.204 7.92499 27.304 8.42499 27.304C8.82498 27.304 9.32498 27.304 9.82498 27.204C10.825 27.104 12.025 26.804 13.325 26.304C14.625 25.804 16.125 25.204 17.825 24.504L23.825 21.904C26.925 20.604 29.525 19.404 31.525 18.504C33.525 17.604 35.225 16.704 36.425 15.904C37.625 15.304 38.525 14.404 39.225 13.404C39.925 12.404 40.325 11.304 40.525 10.204C40.725 9.30406 40.725 8.40406 40.625 7.60406L40.625 7.60406ZM37.525 9.20406C37.025 10.2041 35.725 11.2041 33.625 12.1041L28.325 14.4041C26.225 15.3041 24.125 16.2041 21.925 17.2041C19.725 18.1041 17.5251 19.0041 15.425 19.9041L10.0251 22.2041C7.92505 23.1041 6.32504 23.4041 5.22507 23.2041C4.22507 23.0041 3.42508 22.3041 2.92508 21.1041C2.42508 19.9041 2.42508 18.9041 3.02509 18.0041C3.62509 17.0041 4.92508 16.1041 7.02509 15.2041L30.6251 5.10406C32.1251 4.50407 33.3251 4.10406 34.3251 4.10406C34.7251 4.10406 35.0251 4.20406 35.3251 4.30406C36.4251 4.60406 37.1251 5.30406 37.5251 6.30406C38.025 7.20406 37.925 8.20406 37.525 9.20406L37.525 9.20406Z" transform="translate(275.87497 96.99594)" id="XMLID_110_" fill="#21211F" fill-rule="evenodd" stroke="none" />
          <path d="M0 1.29999L99.2 2.7L99.2 1.29999L99.2 0L0 1.29999Z" transform="translate(0 149.1)" id="XMLID_109_" fill="#21211F" fill-rule="evenodd" stroke="none" />
          <path d="M99.2 1.29999L0 2.7L0 1.29999L0 0L99.2 1.29999Z" transform="translate(222.40001 149.1)" id="XMLID_108_" fill="#21211F" fill-rule="evenodd" stroke="none" />
          <path d="M13 29.8L25.7 29.9L25.7 32C25.3 31.9 25 31.9 24.8 32C24.6 32.1 24.4 32.3 24.2 32.6C24 32.9 24 33.4 24 34.1L24 59.1L22 59.1C22 57.7 20.9 57.4 18.6 58.2C16.7 59.2 14.6 59.7 12.2 59.7C10.5 59.7 8.7 59.3 7.00001 58.4C5.2 57.6 3.80001 56.3 2.7 54.7C2.00001 53.7 1.50001 52.5 1.10001 51.1C0.700005 49.7 0.500008 48.1 0.300003 46.1C0.100006 44.2 0 41.9 0 39.2C0 36.5 0 33.4 0 29.8C0 25 0 21 0.0999985 17.8C0.199997 14.6 0.400002 11.9 0.799995 9.89999C0.999992 8.09999 1.6 6.5 2.49999 5.2C3.39999 3.89999 4.49999 2.8 5.8 1.89999C7.8 0.599991 9.9 0 12.1 0C12.4 0 12.6 0 12.9 0C13.1 0 13.4 0 13.7 0.100006L13.5 0C13.6 0 13.7 0 13.8 0C13.9 0 14 0.100006 14.1 0.100006C15.4 0.400009 16.4 0.700012 17.1 1.10001C17.9 1.5 18.5 1.8 19.1 2C19.5 2.2 19.9 2.2 20.3 2C20.6 1.8 20.8 1.60001 21 1.3C21.2 1 21.3 0.600006 21.3 0.199997L23.4 0.199997L23.4 14.5L21.7 14.5C21.7 13.6 21.6 12.7 21.5 11.8C21.4 11 21.2 10.2 21 9.2C20.8 8.2 20.5 7.3 20 6.39999C19.9 6.2 19.6 5.79999 19.3 5.2C18.9 4.7 18.4 4.09999 17.8 3.59999C17.2 3.09999 16.4 2.59999 15.5 2.29999C14.6 1.89999 13.5 1.79999 12.3 1.99998C11.4 2.09999 10.6 2.29999 9.8 2.59999C8.99999 2.89999 8.3 3.49998 7.69999 4.2C7.09998 4.89999 6.69999 5.89999 6.39999 7C6.09998 8.10001 5.89999 9.60001 5.89999 11.4L5.89999 29.8L5.89999 48.1C5.89999 51.6 6.49999 54.1 7.69999 55.6C8.89999 57.1 10.4 57.8 12.2 57.8C13.1 57.8 13.9 57.7 14.7 57.6C15.6 57.3 16.4 56.8 16.9 56.3C17.4 55.8 17.8 55.1 18.1 54.3C18.3 53.5 18.5 52.4 18.5 51.3C18.6 50.1 18.6 48.8 18.6 47.2L18.6 34.4C18.7 34 18.6 33.6 18.4 33.2C18.3 32.9 18.1 32.7 17.7 32.4C17.4 32.1 16.9 32 16.2 32L13 32L13 29.8L13 29.8Z" transform="translate(119.10001 198.20004)" id="XMLID_106_" fill="#21211F" fill-rule="evenodd" stroke="none" />
          <path d="M26.2 54.2C26.3 55 26.5 55.5 26.9 55.8C27.3 56.1 27.6 56.4 28.1 56.5C28.5 56.6 29 56.6 29.6 56.5L29.6 58.6L17.5 58.6L17.5 56.5C18 56.6 18.4 56.6 18.8 56.5C19.1 56.4 19.3 56.2 19.5 55.8C19.7 55.5 19.8 54.9 19.7 54.2C19.7 54.1 19.5 53.1 19.2 51.3C18.9 49.5 18.5 47 18.1 44L7.59999 44C6.99998 47 6.59999 49.4 6.29999 51.3C5.99998 53.1 5.89999 54.1 5.89999 54.2C5.7 55 5.7 55.5 5.89999 55.8C6.09999 56.1 6.29999 56.4 6.59999 56.5C6.89999 56.6 7.39999 56.6 7.89999 56.5L7.89999 58.6L0 58.6L0 56.5C0.5 56.6 1 56.6 1.5 56.5C1.89999 56.4 2.3 56.2 2.7 55.8C3.09999 55.5 3.3 54.9 3.5 54.2C3.5 54.1 3.60001 53.3 3.89999 51.8C4.2 50.2 4.5 48.2 5 45.6C5.5 43.1 6 40.2 6.60001 36.9C7.20001 33.7 7.8 30.4 8.40001 27L13.3 0L17.5 0C19.1 10 20.5 19 21.8 26.9C22.3 30.3 22.9 33.6 23.3 36.8C23.8 40 24.2 42.9 24.7 45.5C25.1 48 25.4 50.1 25.7 51.7C26.1 53.3 26.2 54.1 26.2 54.2L26.2 54.2ZM8 41.9L17.9 41.9C17.6 39.7 17.2 37.3 16.8 34.7C16.4 32.1 16 29.5 15.6 26.9C15.2 24.3 14.8 21.8 14.4 19.3C14 16.8 13.6 14.6 13.3 12.5C12.9 14.6 12.4 16.9 12 19.3C11.6 21.8 11.1 24.3 10.6 26.9C10.1 29.5 9.7 32.1 9.2 34.7C8.8 37.2 8.40001 39.6 8 41.9L8 41.9Z" transform="translate(146.2 198.80002)" id="XMLID_103_" fill="#21211F" fill-rule="evenodd" stroke="none" />
          <path d="M23.6 0.100006L23.6 8.70001L21.5 8.70001C21.4 7.50001 21.3 6.30002 21 5.30002C20.7 4.50002 20.3 3.70001 19.7 3.00002C19.1 2.30002 18.2 1.90001 17.1 1.90001L7.89999 1.90001L7.89999 28.4L11.1 28.4C14 28.4 15.5 28.2 15.9 27.7C16.3 27.3 16.6 26.8 16.7 26.3C16.9 25.7 17 25 17 24.2L18.9 24.2L18.9 34.4L17 34.4C17 33.6 16.9 32.9 16.7 32.3C16.5 31.8 16.3 31.3 15.9 30.8C15.5 30.4 13.9 30.1 11.1 30.1L7.89999 30.1L7.89999 54.3C7.89999 55.1 8 55.6 8.2 56C8.39999 56.3 8.59999 56.6 8.89999 56.6C9.2 56.8 9.59999 56.8 10 56.6L10 58.7L0 58.7L0 56.6C0.399994 56.8 0.800003 56.8 1 56.6C1.3 56.6 1.5 56.3 1.8 56C2.10001 55.6 2.2 55.1 2.2 54.3L2.2 4.5C2.2 3.7 2.09999 3.10001 1.8 2.7C1.5 2.3 1.3 2.09999 1 2C0.800003 1.89999 0.5 1.89999 0 2L0 0L23.6 0L23.6 0.100006Z" transform="translate(178.8 198.5)" id="XMLID_101_" fill="#21211F" fill-rule="evenodd" stroke="none" />
          <path d="M22.2 84.4L17.6 84.4L17 83C15.9 80.7 13.6 79.2 11.1 79.2C8.60001 79.2 6.3 80.7 5.20001 83L4.60001 84.4L0 84.4L0 11.2C0 5 5 0 11.2 0C17.4 0 22.4 5 22.4 11.2L22.4 84.4L22.2 84.4ZM11 4.69999C7.40001 4.69999 4.50002 7.59999 4.50002 11.2L4.50002 76.6C6.40001 75.3 8.60002 74.5 11 74.5C13.4 74.5 15.6 75.3 17.5 76.6L17.5 11.2C17.5 7.59999 14.6 4.69999 11 4.69999L11 4.69999Z" transform="translate(181.29999 101.70001)" id="XMLID_98_" fill="#21211F" fill-rule="evenodd" stroke="none" />
          <path d="M22.3 84.4L17.7 84.4L17.1 83C16.1 80.7 13.8 79.2 11.2 79.2C8.7 79.2 6.3 80.7 5.3 83L4.7 84.4L0 84.4L0 11.2C0 5 5 0 11.2 0C17.4 0 22.4 5 22.4 11.2L22.4 84.4L22.3 84.4ZM11.2 4.69999C7.59999 4.69999 4.7 7.59999 4.7 11.2L4.7 76.6C6.59999 75.3 8.8 74.5 11.2 74.5C13.6 74.5 15.8 75.3 17.7 76.6L17.7 11.2C17.6 7.59999 14.7 4.69999 11.2 4.69999L11.2 4.69999Z" transform="translate(118.100006 101.70001)" id="XMLID_95_" fill="#21211F" fill-rule="evenodd" stroke="none" />
          <path d="M20.1 19.6L20.1 17.2C20.1 16.6 19.6 16.1 19 16.1L18.3 16.1C16.8 16.1 15.7 10 15.7 10C15.7 10 15.7 10.1 15.7 10.2L14.2 0L14.2 0L14.2 0L14.2 0L12.7 10.1L12.7 10.1C12.7 10.1 11.6 16.2 10.1 16.2L9.3 16.2C8.7 16.2 8.2 16.7 8.2 17.3L8.2 19.6C3.39999 21.8 0 26.7 0 32.4L0 129.3L4.89999 129.3L5.5 127.9C7 124.5 10.4 122.3 14.1 122.3C17.8 122.3 21.2 124.5 22.7 127.9L23.3 129.3L28.2 129.3L28.2 32.4C28.3 26.7 24.9 21.8 20.1 19.6L20.1 19.6ZM23.6 121.2C21.1 118.9 17.7 117.6 14.2 117.6C10.7 117.6 7.30002 118.9 4.80002 121.2L4.80002 32.4C4.80002 27.2 9.00002 23 14.2 23C19.4 23 23.6 27.2 23.6 32.4L23.6 121.2L23.6 121.2Z" transform="translate(146.59999 56.799995)" id="XMLID_92_" fill="#21211F" fill-rule="evenodd" stroke="none" />
        </g>
      </g>
    </g>
  </g>
</svg>